<?xml version="1.0" encoding="UTF-8"?><svg id="Layer_1" xmlns="http://www.w3.org/2000/svg" viewBox="0 0 217.6 140.8"><g><path d="M209.54,102.4H8.06c-4.43,0-8.06-3.59-8.06-8.01V46.41c0-4.41,3.62-8.01,8.06-8.01H209.54c4.43,0,8.06,3.59,8.06,8.01v47.99c0,4.4-3.62,8.01-8.06,8.01" style="fill:#020202;"/><path d="M209.54,38.4H8.06c-4.43,0-8.06,3.59-8.06,8.01v48c0,4.4,3.62,7.99,8.06,7.99H209.54c4.43,0,8.06-3.59,8.06-7.99V46.41c0-4.4-3.62-8.01-8.06-8.01m0,1.28c3.73,0,6.78,3.01,6.78,6.71v48.01c0,3.7-3.03,6.71-6.78,6.71H8.06c-3.73,0-6.78-3.02-6.78-6.71V46.41c.01-3.72,3.04-6.73,6.78-6.73H209.54" style="fill:#a6a6a6;"/><g><path d="M76.44,54.79c0,1.33-.4,2.41-1.2,3.2-.91,.95-2.09,1.42-3.55,1.42s-2.58-.48-3.55-1.44c-.98-.97-1.47-2.15-1.47-3.57s.48-2.61,1.47-3.57c.98-.97,2.16-1.44,3.55-1.44,.69,0,1.35,.14,1.98,.41s1.13,.63,1.51,1.08l-.85,.84c-.65-.76-1.51-1.14-2.64-1.14-1.02,0-1.9,.35-2.64,1.06-.74,.71-1.12,1.63-1.12,2.76s.37,2.06,1.12,2.76c.74,.71,1.63,1.06,2.64,1.06,1.07,0,1.98-.35,2.7-1.08,.47-.46,.74-1.12,.81-1.95h-3.51v-1.16h4.68c.04,.25,.07,.49,.07,.72" style="fill:#fff;"/><path d="M76.44,54.79h-.06c0,1.33-.4,2.38-1.18,3.16-.9,.94-2.07,1.4-3.51,1.4s-2.55-.48-3.51-1.43-1.45-2.12-1.45-3.53,.48-2.59,1.45-3.53c.96-.95,2.13-1.43,3.51-1.43,.69,0,1.34,.14,1.96,.39,.62,.27,1.12,.61,1.49,1.06l.04-.04-.04-.04-.85,.84,.04,.04,.04-.04c-.65-.78-1.56-1.16-2.69-1.16-1.03,0-1.93,.37-2.69,1.08-.76,.72-1.13,1.66-1.13,2.81s.37,2.08,1.13,2.81,1.65,1.08,2.69,1.08c1.09,0,2.01-.37,2.74-1.09,.48-.48,.76-1.14,.83-1.97v-.07h-3.51v-1.03h4.63v-.05h-.06c.04,.26,.07,.49,.07,.72h.11c0-.23-.01-.48-.07-.74v-.04h-4.81v1.27h3.57v-.05h-.06c-.07,.82-.34,1.44-.8,1.91-.72,.71-1.6,1.05-2.66,1.05-1.01,0-1.87-.34-2.6-1.05-.73-.69-1.1-1.61-1.1-2.72s.37-2.03,1.1-2.72c.73-.71,1.6-1.05,2.6-1.05,1.12,0,1.97,.37,2.6,1.12l.04,.04,.94-.93-.04-.04c-.39-.45-.9-.82-1.53-1.09s-1.31-.41-2.01-.41c-1.4,0-2.62,.49-3.59,1.46-.99,.97-1.49,2.18-1.49,3.61s.5,2.64,1.49,3.61c.99,.97,2.19,1.46,3.59,1.46s2.67-.48,3.59-1.44l-.04-.04,.04,.04c.81-.8,1.23-1.89,1.21-3.24h-.06" style="fill:#fff;"/><path d="M83.86,50.78h-4.41v3.05h3.97v1.16h-3.97v3.05h4.41v1.18h-5.65v-9.6h5.65v1.18" style="fill:#fff;"/><path d="M83.86,50.78v-.05h-4.46v3.16h3.97v1.03h-3.97v3.16h4.41v1.06h-5.54v-9.49h5.54v1.12h.11v-1.24h-5.76v9.71h5.76v-1.29h-4.41v-2.93h3.97v-1.27h-3.97v-2.93h4.41v-.05h-.06" style="fill:#fff;"/><path d="M89.09,59.21h-1.24v-8.42h-2.7v-1.18h6.65v1.18h-2.7v8.42" style="fill:#fff;"/><path d="M89.09,59.21v-.05h-1.18v-8.42h-2.7v-1.06h6.53v1.06h-2.7v8.47h.11v-8.36h2.7v-1.29h-6.76v1.29h2.7v8.42h1.36v-.05h-.06" style="fill:#fff;"/><path d="M96.61,59.21v-9.6h1.24v9.6h-1.24" style="fill:#fff;"/><path d="M96.61,59.21h.06v-9.55h1.13v9.49h-1.18v.05h0v.05h1.29v-9.71h-1.36v9.71h.06v-.05" style="fill:#fff;"/><path d="M103.36,59.21h-1.24v-8.42h-2.7v-1.18h6.65v1.18h-2.7v8.42" style="fill:#fff;"/><path d="M103.36,59.21v-.05h-1.18v-8.42h-2.7v-1.06h6.53v1.06h-2.7v8.47h.11v-8.36h2.7v-1.29h-6.76v1.29h2.7v8.42h1.36v-.05h-.06" style="fill:#fff;"/><path d="M112.48,57.15c.72,.72,1.6,1.08,2.63,1.08s1.91-.35,2.63-1.08c.72-.72,1.07-1.63,1.07-2.75s-.36-2.04-1.07-2.75c-.72-.72-1.6-1.08-2.63-1.08s-1.91,.35-2.63,1.08c-.72,.72-1.07,1.63-1.07,2.75s.36,2.04,1.07,2.75Zm6.17,.8c-.95,.97-2.13,1.46-3.55,1.46s-2.59-.49-3.54-1.46-1.42-2.15-1.42-3.55,.47-2.59,1.42-3.55,2.13-1.46,3.54-1.46,2.59,.49,3.54,1.46c.95,.98,1.43,2.17,1.43,3.55s-.48,2.59-1.42,3.55" style="fill:#fff;"/><path d="M112.48,57.15l-.04,.04c.73,.74,1.61,1.1,2.67,1.09,1.05,0,1.94-.37,2.67-1.09,.73-.74,1.09-1.66,1.09-2.79s-.37-2.07-1.09-2.79c-.73-.74-1.63-1.09-2.67-1.09s-1.94,.37-2.67,1.09c-.73,.74-1.09,1.66-1.09,2.79s.37,2.07,1.09,2.79l.04-.04,.04-.04c-.7-.71-1.06-1.61-1.06-2.71s.36-2,1.06-2.71c.7-.71,1.56-1.06,2.59-1.06s1.89,.35,2.59,1.06,1.06,1.61,1.06,2.71-.36,2-1.06,2.71-1.56,1.06-2.59,1.06-1.87-.35-2.59-1.06l-.04,.04Zm6.17,.8l-.04-.04c-.94,.97-2.11,1.44-3.5,1.44s-2.56-.48-3.5-1.44-1.4-2.12-1.4-3.51,.47-2.56,1.4-3.51c.94-.97,2.11-1.44,3.5-1.44s2.55,.48,3.5,1.44c.95,.97,1.42,2.14,1.42,3.51s-.47,2.56-1.4,3.51l.04,.04,.04,.04c.96-.98,1.45-2.18,1.45-3.59s-.48-2.61-1.45-3.59c-.96-.98-2.16-1.48-3.58-1.48s-2.63,.49-3.58,1.47c-.96,.98-1.45,2.18-1.45,3.59s.48,2.61,1.45,3.59c.96,.98,2.16,1.47,3.58,1.47s2.63-.49,3.58-1.47l-.04-.04" style="fill:#fff;"/><path d="M121.81,59.21v-9.6h1.51l4.7,7.46h.06l-.06-1.85v-5.62h1.24v9.6h-1.29l-4.92-7.83h-.06l.06,1.85v5.98h-1.24" style="fill:#fff;"/><path d="M121.81,59.21h.06v-9.55h1.42l4.7,7.46h.14l-.06-1.91v-5.56h1.13v9.49h-1.21l-4.92-7.83h-.14l.06,1.91v5.92h-1.18v.05h0v.05h1.29v-6.03l-.06-1.85h-.06v.05h.03l4.92,7.83h1.39v-9.71h-1.36v5.68l.06,1.85h.06v-.05h-.03l-4.7-7.46h-1.6v9.71h.06v-.05" style="fill:#fff;"/><path d="M172.36,86.4h3v-20h-3v20Zm27.09-12.8l-3.44,8.67h-.11l-3.58-8.67h-3.24l5.37,12.12-3.06,6.74h3.14l8.26-18.86h-3.35Zm-17.06,10.53c-.99,0-2.36-.49-2.36-1.7,0-1.54,1.71-2.14,3.18-2.14,1.32,0,1.94,.29,2.75,.67-.23,1.85-1.83,3.16-3.58,3.16h0Zm.36-10.95c-2.18,0-4.43,.95-5.37,3.06l2.67,1.1c.56-1.1,1.64-1.47,2.75-1.47,1.56,0,3.14,.93,3.17,2.57v.2c-.55-.31-1.71-.78-3.14-.78-2.88,0-5.81,1.57-5.81,4.51,0,2.68,2.36,4.4,5,4.4,2.02,0,3.14-.9,3.84-1.96h.1v1.54h2.91v-7.67c0-3.55-2.67-5.53-6.11-5.53h0Zm-18.59,2.89h-4.28v-6.85h4.28c2.24,0,3.53,1.85,3.53,3.43s-1.28,3.43-3.53,3.43h0Zm-.08-9.65h-7.2v20h3v-7.57h4.2c3.33,0,6.61-2.4,6.61-6.21s-3.28-6.21-6.61-6.21h0Zm-39.29,17.72c-2.08,0-3.81-1.73-3.81-4.1s1.74-4.15,3.81-4.15,3.66,1.76,3.66,4.15-1.61,4.1-3.66,4.1Zm3.46-9.41h-.1c-.67-.8-1.97-1.53-3.61-1.53-3.43,0-6.57,3-6.57,6.82s3.14,6.78,6.57,6.78c1.64,0,2.93-.72,3.61-1.55h.1v.98c0,2.6-1.4,4-3.66,4-1.85,0-2.99-1.32-3.46-2.42l-2.62,1.08c.76,1.81,2.75,4.02,6.07,4.02,3.53,0,6.51-2.06,6.51-7.09v-12.21h-2.85v1.13Zm4.93,11.67h3.02v-20h-3.02v20Zm7.45-6.6c-.08-2.63,2.05-3.98,3.58-3.98,1.2,0,2.2,.6,2.55,1.44l-6.13,2.52h0Zm9.35-2.26c-.56-1.53-2.31-4.33-5.87-4.33s-6.46,2.75-6.46,6.81c0,3.81,2.91,6.81,6.8,6.81,3.14,0,4.96-1.91,5.72-3.01l-2.34-1.55c-.79,1.13-1.85,1.88-3.37,1.88s-2.62-.69-3.32-2.06l9.17-3.76-.32-.78h-.01Zm-73.03-2.26v2.89h6.95c-.21,1.62-.76,2.81-1.58,3.64-1.01,1.01-2.59,2.11-5.37,2.11-4.28,0-7.63-3.43-7.63-7.68s3.35-7.68,7.63-7.68c2.31,0,3.99,.9,5.25,2.06l2.05-2.04c-1.74-1.65-4.05-2.91-7.3-2.91-5.87,0-10.8,4.74-10.8,10.57s4.93,10.57,10.8,10.57c3.17,0,5.56-1.03,7.42-2.97,1.93-1.91,2.52-4.59,2.52-6.75,0-.67-.06-1.29-.15-1.8h-9.79Zm17.86,8.85c-2.08,0-3.87-1.7-3.87-4.13s1.79-4.13,3.87-4.13,3.87,1.67,3.87,4.13-1.79,4.13-3.87,4.13Zm0-10.92c-3.79,0-6.89,2.86-6.89,6.81s3.08,6.81,6.89,6.81,6.89-2.89,6.89-6.81-3.08-6.81-6.89-6.81Zm15.01,10.92c-2.08,0-3.87-1.7-3.87-4.13s1.79-4.13,3.87-4.13,3.87,1.67,3.87,4.13-1.79,4.13-3.87,4.13Zm0-10.92c-3.79,0-6.89,2.86-6.89,6.81s3.08,6.81,6.89,6.81,6.89-2.89,6.89-6.81-3.08-6.81-6.89-6.81" style="fill:#fff;"/></g></g><g><path d="M36.75,70.28l7.01-6.9,8.83,4.98c1.5,.84,1.5,3,0,3.84l-8.83,4.98-7.01-6.9Z" style="fill:#ffcb00;"/><path d="M36.75,70.28l7.01,6.9-24.45,13.79c-1.07,.6-2.31,.22-2.92-.67l20.36-20.03Z" style="fill:#f63547;"/><path d="M43.76,63.37l-7.01,6.9-20.36-20.04c.62-.87,1.86-1.25,2.92-.65l24.45,13.79Z" style="fill:#00de76;"/><path d="M16.39,50.23l20.36,20.04-20.36,20.03c-.25-.35-.4-.78-.4-1.25V51.5c0-.48,.15-.91,.4-1.27Z" style="fill:#00c3ff;"/></g></svg>