<?xml version="1.0" encoding="utf-8"?>
<!-- Generator: Adobe Illustrator 26.1.0, SVG Export Plug-In . SVG Version: 6.00 Build 0)  -->
<svg version="1.1" id="Layer_1" xmlns="http://www.w3.org/2000/svg" xmlns:xlink="http://www.w3.org/1999/xlink" x="0px" y="0px"
	 viewBox="0 0 89 20" style="enable-background:new 0 0 89 20;" xml:space="preserve">
<style type="text/css">
	.st0{fill:#8E3B3D;}
</style>
<g id="Artboard_37">
	<g id="_ae285dff" transform="translate(1.881 1.996)">
		<path id="path5" class="st0" d="M11.9,0c1.2,1.7,2.4,3.4,3.6,5.1c-1.9,2.8-3.9,5.5-5.9,8.3c-0.8,1-1.5,2.1-2.3,3.2
			c-2.5,0-5,0-7.4,0c0.1-0.1,0.2-0.3,0.2-0.4C4.1,10.7,8,5.4,11.9,0z"/>
		<path id="path7" class="st0" d="M65.8,4.1c1.4,2.1,2.7,4.1,4.1,6.2c-0.5,0-1,0-1.4,0c-0.3-0.5-0.6-0.9-0.9-1.4c-1.2,0-2.4,0-3.6,0
			c-0.3,0.5-0.6,0.9-0.9,1.4c-0.5,0-1,0-1.4,0C62.9,8.2,64.4,6.2,65.8,4.1 M64.5,8c0.8,0,1.7,0,2.5,0c-0.4-0.6-0.8-1.3-1.2-1.9
			C65.3,6.8,64.9,7.4,64.5,8L64.5,8z"/>
		<path id="path9" class="st0" d="M70.7,4.1c2.1,1.4,4.1,2.9,6.2,4.4c0.1-1.3,0-2.7,0-4l1.3,0c0,2,0,4.1,0,6.1
			c-1.4-0.9-2.7-1.9-4-2.8c-0.7-0.5-1.5-1-2.2-1.6c0,1.3,0,2.7,0,4c-0.4,0-0.9,0-1.3,0C70.7,8.2,70.7,6.2,70.7,4.1z"/>
		<path id="path11" class="st0" d="M27,10.3c1.4-2.1,2.8-4.1,4.3-6.2c1.4,2.1,2.7,4.1,4.1,6.2c-0.5,0-1,0-1.5,0
			c-0.3-0.5-0.6-0.9-0.9-1.4c-1.2,0-2.4,0-3.7,0c-0.3,0.5-0.6,0.9-0.9,1.4C28,10.3,27.5,10.3,27,10.3 M30,8c0.8,0,1.7,0,2.5,0
			c-0.4-0.6-0.8-1.3-1.2-1.9C30.8,6.8,30.4,7.4,30,8z"/>
		<path id="path13" class="st0" d="M47.4,4.7c0.7-0.3,1.5-0.3,2.3-0.2c0.6,0.1,1.2,0.4,1.6,0.9c-0.4,0.1-0.7,0.3-1.1,0.4
			c-0.6-0.6-1.5-0.8-2.3-0.3c-0.2,0.1-0.3,0.4-0.2,0.7c0.1,0.1,0.2,0.2,0.3,0.2c1,0.3,1.9,0.6,2.8,1.1c0.6,0.4,0.8,1.3,0.4,1.9
			c-0.1,0.1-0.2,0.3-0.3,0.4c-0.9,0.6-2.1,0.9-3.2,0.6c-0.8-0.1-1.5-0.8-1.7-1.6c0.4-0.1,0.9-0.1,1.3-0.2c0,0.4,0.3,0.7,0.6,0.9
			c0.7,0.3,1.5,0.2,2-0.3c0.3-0.3,0.2-0.7-0.1-1c0,0-0.1-0.1-0.2-0.1c-0.9-0.5-2.1-0.5-2.9-1.1c-0.4-0.3-0.6-0.7-0.5-1.2
			C46.5,5.2,46.9,4.8,47.4,4.7z"/>
		<path id="path15" class="st0" d="M35.9,4.5c0.5,0,1,0,1.5,0c0.5,0.6,1.1,1.3,1.6,1.9c0.6-0.6,1.1-1.3,1.7-1.9c0.5,0,1,0,1.6,0
			c-0.8,0.9-1.6,1.8-2.5,2.8c0.8,1,1.8,2,2.6,3c-0.5,0-1,0-1.5,0c-0.6-0.7-1.2-1.5-1.9-2.2c-0.6,0.7-1.3,1.5-1.9,2.2
			c-0.5,0-1,0-1.5,0c0.9-1,1.8-2,2.7-3C37.4,6.4,36.6,5.5,35.9,4.5z"/>
		<path id="path17" class="st0" d="M43.4,4.5c0.4,0,0.9,0,1.3,0c0,1.9,0,3.9,0,5.8h-1.4C43.4,8.4,43.4,6.4,43.4,4.5z"/>
		<path id="path19" class="st0" d="M56.4,4.5c1.2-0.1,2.3,0,3.4,0.3c0.7,0.2,1.1,1,0.8,1.7c-0.1,0.3-0.3,0.5-0.5,0.7
			c0.6,0.1,1.1,0.5,1.3,1.1c0.2,0.7-0.2,1.4-0.9,1.7c-1.3,0.6-2.8,0.3-4.2,0.4C56.4,8.4,56.4,6.4,56.4,4.5 M57.7,5.3
			c0,0.6,0,1.1,0,1.7c0.5,0,1,0,1.5-0.2c0.3-0.2,0.4-0.7,0.2-1c-0.1-0.1-0.1-0.2-0.2-0.2C58.7,5.4,58.2,5.3,57.7,5.3 M57.7,7.8
			c0,0.6,0,1.1,0,1.7c0.7,0.1,1.3,0,2-0.2c0.3-0.1,0.5-0.5,0.4-0.8c0-0.2-0.2-0.3-0.3-0.4C59.2,7.8,58.5,7.7,57.7,7.8L57.7,7.8z"/>
		<path id="path21" class="st0" d="M79.8,4.5c0.4,0,0.9,0,1.3,0c0,0.8,0,1.5,0,2.3c1.1-0.8,2.2-1.5,3.3-2.3c0.6,0,1.2,0,1.8,0
			c-1.3,0.9-2.6,1.7-3.9,2.6c1.3,1.1,2.6,2.1,3.9,3.2c-0.6,0-1.2,0-1.8,0c-1-0.8-2.1-1.7-3.1-2.5c-0.1,0.1-0.1,0.2-0.2,0.2
			c0,0.8,0,1.6,0,2.3c-0.4,0-0.9,0-1.3,0C79.8,8.4,79.8,6.4,79.8,4.5z"/>
		<path id="path23" class="st0" d="M11.9,10.3c2.5,0,5,0,7.5,0c1.5,2.1,3,4.1,4.5,6.2c-2.5,0-5,0-7.5,0
			C14.9,14.4,13.4,12.4,11.9,10.3z"/>
	</g>
</g>
</svg>
