<?xml version="1.0" encoding="UTF-8"?><svg id="a" xmlns="http://www.w3.org/2000/svg" viewBox="0 0 70.47 21.99"><defs><style>.b{fill:#8e3b3d;fill-rule:evenodd;}</style></defs><path class="b" d="M50.21,5.88h3.73v5.93l3.23-5.93h3.42l-6.9,11.98s-.64,1.01-1.44,1.54c-.65,.44-1.46,.42-1.7,.43-1.36-.01-3.01-.02-3.01-.02l.79-2.86h1.28s.59-.06,.81-.35c.22-.28,.33-.55,.33-.96,0-.61-.55-9.77-.55-9.77h0ZM11.44,7.06c-.52,1.2-2.13,1.07-2.13,1.07h-1.87l.68-2.56s1.68,0,2.5,0c.88,0,1.16,.71,.82,1.48h0Zm4.26-1.74c.32-2.53-1.91-3.17-4.31-3.17H5.07L1.34,15.75H5.36l1.25-4.62,2.25,.02s.93-.05,.95,.82c.02,.93-.69,2.64-.64,3.78h4.13v-.36s-.35-.09-.31-.57c.02-.2,.24-.83,.53-1.69,.17-.38,.44-1.27,.41-2-.03-.91-.6-1.33-1.42-1.63,2.56-.6,3.21-4.18,3.21-4.18h0Zm.91,.55h3.66l-1.51,5.8s-.38,1.29,.83,1.39c.96,.08,1.67-1.06,1.9-1.84,.31-1.02,1.5-5.36,1.5-5.36h3.77l-2.87,9.88h-3.29l.4-1.41s-1.68,2.05-4.18,1.8c-2.22-.22-2.41-1.83-2.03-3.84,.19-.98,1.81-6.43,1.81-6.43Zm18.81,1.21c-.52,1.46-1.96,1.29-1.96,1.29h-1.97l.78-2.89s1.24,0,2.07,0c1.01,0,1.37,.8,1.09,1.6h0Zm4.13-1.35c.32-2.53-1.61-3.58-4.01-3.58h-6.32l-3.73,13.6h4.02l1.13-4.19,3.2,.02s4.95,.21,5.72-5.84h0Zm3.38,8c-.63,.16-1.39,.25-1.54-.32-.41-1.56,3.24-2.02,3.24-2.02,.02,1.42-1.22,2.22-1.7,2.34h0Zm5.53-2.86c.48-1.64,1.09-3.2,.6-4.06-.75-1.32-2.11-1.44-4.1-1.44-2.2,0-4.91,.42-5.79,3.34h3.66s.33-1.1,1.71-1.03c1.21,.06,1.15,.9,.7,1.36-.79,.81-2.95,.36-5.35,1.19-2.1,.73-2.83,3.49-2.38,4.59,.44,1.07,1.27,1.2,2.37,1.31,1.78,.17,3.15-.82,3.79-1.4,0,.65,.02,1.01,.02,1.01h3.85v-.36s-.35-.09-.31-.57c.03-.35,.69-2.05,1.25-3.94h0Z"/><path class="b" d="M65.37,3.59l-4.31,14.98,8.06-7.49-3.75-7.49Z"/><path class="b" d="M62.61,3.59l-4.31,14.98,8.06-7.49-3.75-7.49Z"/></svg>