<?xml version="1.0" encoding="utf-8"?>
<!-- Generator: Adobe Illustrator 26.1.0, SVG Export Plug-In . SVG Version: 6.00 Build 0)  -->
<svg version="1.1" id="Layer_1" xmlns="http://www.w3.org/2000/svg" xmlns:xlink="http://www.w3.org/1999/xlink" x="0px" y="0px"
	 viewBox="0 0 21 19" style="enable-background:new 0 0 21 19;" xml:space="preserve">
<style type="text/css">
	.st0{fill:#8E3B3D;}
	.st1{fill:#FFFFFF;}
</style>
<g id="Artboard_39">
	<g id="layer1" transform="translate(1.478 0.5)">
		<path id="path3078" class="st0" d="M0,0h18v9.7l-0.9,1.4l0.9,1.2V18H0V8.8l0.6-0.6L0,7.6V0z"/>
		<path id="path3082" class="st1" d="M3.5,12.5V9.7h3l0.3,0.4l0.3-0.4H18v2.6c-0.2,0.1-0.4,0.2-0.6,0.2h-6L11,12.1v0.4H9.8v-0.8
			c-0.2,0.1-0.3,0.1-0.5,0.1H8.9v0.7H7.1l-0.3-0.4l-0.3,0.4L3.5,12.5z"/>
		<path id="path3080" class="st1" d="M0,7.6L0.7,6h1.2l0.4,0.9V6h1.5l0.2,0.6L4.1,6h6.5v0.3C10.9,6.1,11.2,6,11.5,6l2.1,0L14,6.9V6
			h1.2l0.3,0.5V6h1.2v2.8h-1.2l-0.3-0.5v0.5h-1.8l-0.2-0.4h-0.5l-0.2,0.4h-1.2c-0.3,0-0.6-0.1-0.8-0.3v0.3H8.8L8.5,8.4v0.4H1.7
			L1.5,8.4H1L0.8,8.8H0V7.6z"/>
		<path id="path3046" class="st0" d="M0.9,6.4L0,8.5h0.6l0.2-0.4h1l0.2,0.4h0.6L1.6,6.4H0.9z M1.2,6.9l0.3,0.7H0.9L1.2,6.9z"/>
		<path id="path3048" class="st0" d="M2.6,8.5V6.4h0.8l0.5,1.4l0.5-1.4h0.8v2.1H4.7V6.9L4.1,8.5H3.7L3.1,6.9v1.6L2.6,8.5z"/>
		<path id="path3050" class="st0" d="M5.6,8.5V6.4h1.7v0.5H6.1v0.4h1.2v0.4H6.1V8h1.2v0.5L5.6,8.5z"/>
		<path id="path3052" class="st0" d="M7.6,6.4v2.1h0.5V7.7h0.2L9,8.5h0.6L8.9,7.7c0.3,0,0.6-0.3,0.6-0.7c0-0.4-0.3-0.7-0.7-0.7
			c0,0,0,0-0.1,0L7.6,6.4z M8.1,6.8h0.6C8.9,6.8,9,6.9,9,7.1c0,0.1-0.1,0.2-0.2,0.2H8.1L8.1,6.8z"/>
		<path id="path3054" class="st0" d="M10.3,8.5H9.7V6.4h0.5V8.5z"/>
		<path id="path3056" class="st0" d="M11.6,8.5h-0.1c-0.5,0-0.9-0.4-0.9-0.9c0,0,0-0.1,0-0.1c-0.1-0.5,0.3-1,0.9-1.1
			c0.1,0,0.1,0,0.2,0h0.6v0.5h-0.6c-0.3,0-0.5,0.2-0.5,0.5c0,0,0,0,0,0.1C11,7.7,11.2,8,11.5,8c0,0,0.1,0,0.1,0h0.1L11.6,8.5z"/>
		<path id="path3058" class="st0" d="M12.7,6.4l-0.9,2.1h0.6l0.2-0.4h1l0.2,0.4h0.6l-0.9-2.1H12.7z M13.1,6.9l0.3,0.7h-0.6L13.1,6.9
			z"/>
		<path id="path3060" class="st0" d="M14.4,8.5V6.4h0.7l0.9,1.3V6.4h0.5v2.1h-0.7l-0.9-1.4v1.4H14.4z"/>
		<path id="path3062" class="st0" d="M3.9,12.2v-2.1h1.7v0.5H4.4v0.4h1.2v0.4H4.4v0.4h1.2v0.5L3.9,12.2z"/>
		<path id="path3064" class="st0" d="M12.3,12.2v-2.1H14v0.5h-1.2v0.4H14v0.4h-1.2v0.4H14v0.5L12.3,12.2z"/>
		<path id="path3066" class="st0" d="M5.6,12.2l0.8-1l-0.9-1.1h0.7l0.5,0.7l0.5-0.7H8l-0.8,1.1L8,12.2H7.3l-0.5-0.7l-0.5,0.7
			L5.6,12.2z"/>
		<path id="path3068" class="st0" d="M8,10.1v2.1h0.5v-0.7h0.6c0.4,0.1,0.8-0.2,0.8-0.6c0,0,0-0.1,0-0.1c0-0.4-0.3-0.7-0.7-0.7
			c0,0,0,0-0.1,0H8z M8.6,10.5h0.6c0.1,0,0.2,0.1,0.3,0.2c0,0,0,0,0,0c0,0.1-0.1,0.2-0.2,0.2c0,0,0,0,0,0H8.6L8.6,10.5z"/>
		<path id="path3072" class="st0" d="M10.2,10.1v2.1h0.5v-0.8h0.2l0.6,0.8h0.6l-0.7-0.8c0.3,0,0.6-0.3,0.6-0.7
			c0-0.4-0.3-0.7-0.7-0.7c0,0,0,0-0.1,0L10.2,10.1z M10.7,10.5h0.6c0.1,0,0.2,0.1,0.3,0.2c0,0.1-0.1,0.2-0.2,0.2h-0.6L10.7,10.5z"/>
		<path id="path3074" class="st0" d="M14.3,12.2v-0.5h1.1c0.2,0,0.2-0.1,0.2-0.2s-0.1-0.2-0.2-0.2h-0.5c-0.3,0-0.6-0.2-0.6-0.5
			c0,0,0-0.1,0-0.1c0-0.3,0.2-0.7,0.8-0.7h1l-0.2,0.5H15c-0.2,0-0.2,0.1-0.2,0.2c0,0.1,0.1,0.2,0.2,0.2c0,0,0,0,0,0h0.5
			c0.3,0,0.6,0.2,0.7,0.5c0,0,0,0.1,0,0.1c0,0.3-0.2,0.7-0.6,0.7c0,0-0.1,0-0.1,0L14.3,12.2z"/>
		<path id="path3076" class="st0" d="M16.2,12.2v-0.5h1.1c0.2,0,0.2-0.1,0.2-0.2s-0.1-0.2-0.2-0.2h-0.5c-0.3,0-0.6-0.2-0.6-0.5
			c0,0,0-0.1,0-0.1c0-0.3,0.2-0.7,0.8-0.7h1l-0.2,0.5h-0.9c-0.2,0-0.2,0.1-0.2,0.2c0,0.1,0.1,0.2,0.2,0.2c0,0,0,0,0,0h0.5
			c0.3,0,0.6,0.2,0.7,0.5c0,0,0,0.1,0,0.1c0,0.3-0.2,0.7-0.6,0.7c0,0-0.1,0-0.1,0L16.2,12.2z"/>
	</g>
</g>
</svg>
