<?xml version="1.0" encoding="utf-8"?>
<!-- Generator: Adobe Illustrator 26.1.0, SVG Export Plug-In . SVG Version: 6.00 Build 0)  -->
<svg version="1.1" id="Layer_1" xmlns="http://www.w3.org/2000/svg" xmlns:xlink="http://www.w3.org/1999/xlink" x="0px" y="0px"
	 viewBox="0 0 28 27" style="enable-background:new 0 0 28 27;" xml:space="preserve">
<style type="text/css">
	.st0{fill:none;stroke:#000000;stroke-linecap:round;stroke-linejoin:round;}
</style>
<g id="Artboard_47">
	<path id="Icon_feather-phone" class="st0" d="M26,20.2v3.6c0,1.3-1.1,2.4-2.4,2.4c-0.1,0-0.2,0-0.2,0c-3.7-0.4-7.3-1.7-10.4-3.7
		c-2.9-1.8-5.4-4.3-7.2-7.2C3.7,12.2,2.4,8.6,2,4.9C1.9,3.5,2.9,2.4,4.2,2.3c0.1,0,0.1,0,0.2,0H8c1.2,0,2.2,0.9,2.4,2.1
		c0.2,1.2,0.4,2.3,0.8,3.4c0.3,0.9,0.1,1.9-0.5,2.5l-1.5,1.5c1.7,3,4.2,5.5,7.2,7.2l1.5-1.5c0.7-0.7,1.7-0.9,2.5-0.5
		c1.1,0.4,2.2,0.7,3.4,0.8C25.1,17.9,26,19,26,20.2L26,20.2z"/>
</g>
</svg>
