<?xml version="1.0" encoding="UTF-8"?><svg id="a" xmlns="http://www.w3.org/2000/svg" viewBox="0 0 36.8 19.18"><defs><style>.d{fill:#8e3b3d;}</style></defs><g id="b"><path id="c" class="d" d="M31.14,9.13c-.74,0-1.11,.41-1.11,1.22,0,.54,.24,.81,.71,.81,.54,0,1-.37,1.11-.9v-.41c.05-.35-.19-.67-.54-.73-.06,0-.11,0-.17,0Zm-13.15,.41c0-.33-.2-.49-.61-.49-.42-.04-.81,.24-.91,.65h1.52v-.16h0Zm-6.17,1.39c0,.22,.17,.33,.51,.33,.44,.06,.84-.24,.91-.67,.01-.07,.01-.15,0-.23h-.3c-.74,0-1.11,.19-1.11,.57h0Zm22.98-5.45c-1.04-1.31-2.36-2.37-3.87-3.11-1.69-.74-3.51-1.12-5.36-1.13-2.26-.04-4.49,.58-6.42,1.77,1.58,1.07,2.76,2.64,3.34,4.46h-.97c-.57-1.64-1.64-3.05-3.08-4.03-1.43,.98-2.51,2.39-3.08,4.03h-.97c.58-1.82,1.76-3.39,3.34-4.46-1.93-1.19-4.15-1.81-6.42-1.77-1.85,0-3.67,.39-5.36,1.13-1.5,.74-2.82,1.8-3.87,3.11C.22,8.03,.22,11.52,2.09,14.09c1.04,1.31,2.36,2.37,3.87,3.11,1.69,.74,3.52,1.13,5.36,1.13,2.26,.04,4.49-.58,6.42-1.77-1.47-1.01-2.6-2.44-3.25-4.1h.97c.64,1.48,1.67,2.75,2.99,3.68,1.32-.93,2.35-2.2,2.99-3.68h.97c-.65,1.66-1.79,3.09-3.25,4.1,1.93,1.2,4.15,1.81,6.42,1.77,1.85,0,3.67-.39,5.36-1.13,1.5-.74,2.82-1.8,3.87-3.11,1.88-2.57,1.88-6.06,0-8.63h0ZM8.47,11.98l.81-3.42-1.92,3.42h-1.21l-.2-3.42-.81,3.42h-1.22l1.01-4.48h2.12l.1,2.77,1.52-2.77h2.23l-1.11,4.48h-1.31Zm6.17-1.95l-.3,1.3v.25l-.1,.16v.25h-1.12v-.41c-.38,.37-.89,.55-1.42,.49-.81,0-1.21-.35-1.21-1.06,0-.92,.78-1.38,2.33-1.38,.21,0,.41,.02,.61,.08v-.24c0-.22-.27-.33-.81-.33-.37-.02-.75,0-1.11,.08h-.2l-.1,.08,.1-.81c.53-.14,1.07-.22,1.62-.24,1.21,0,1.82,.35,1.82,1.06,0,.25-.04,.49-.1,.73h0Zm2.83,1.22c.48,0,.96-.07,1.42-.24l-.2,.9c-.43,.1-.87,.15-1.32,.16-1.55,0-2.33-.54-2.33-1.63,0-1.47,.78-2.2,2.33-2.2,1.21,0,1.82,.43,1.82,1.3,0,.3-.02,.61-.1,.9h-2.73v.16c0,.43,.37,.65,1.11,.65h0Zm5.26-2.12h-1.01c-.4,0-.61,.08-.61,.24s.2,.3,.61,.41c.61,.22,.91,.57,.91,1.06,0,.81-.71,1.22-2.12,1.22h-.3c-.13-.05-.26-.08-.4-.08h-.41l-.2-.08h-.1l.2-.81c.4,.08,.81,.13,1.21,.16,.54,0,.81-.11,.81-.33,0-.16-.2-.3-.61-.41-.74-.27-1.11-.62-1.11-1.06,0-.81,.71-1.22,2.12-1.22,.07,0,.25,.01,.56,.04s.52,.04,.66,.04l-.2,.81h-.01Zm2.33,2.77c-.33,.08-.67,.13-1.01,.16-.67,0-1.01-.27-1.01-.81v-.33l.1-.33v-.32l.71-2.77h1.32l-.2,.81h.71l-.2,.9h-.71l-.3,1.55c-.06,.04-.09,.1-.1,.16,0,.16,.17,.24,.51,.24,.14,.01,.28-.01,.4-.08l-.2,.81h0Zm1.82,.08h-1.42l.81-3.66h1.31l-.2,.57c.32-.34,.75-.54,1.21-.57h.3l.1,.08-.51,.98h-.3c-.47,0-.91,.87-1.32,2.6h0Zm6.37-1.63c-.2,1.14-1.08,1.71-2.63,1.71-1.48,0-2.23-.57-2.23-1.71,0-.59,.28-1.15,.76-1.51,.57-.43,1.26-.64,1.97-.61,1.42,0,2.12,.54,2.12,1.63v.49h0Z"/></g></svg>