<?xml version="1.0" encoding="utf-8"?>
<!-- Generator: Adobe Illustrator 26.1.0, SVG Export Plug-In . SVG Version: 6.00 Build 0)  -->
<svg version="1.1" id="Layer_1" xmlns="http://www.w3.org/2000/svg" xmlns:xlink="http://www.w3.org/1999/xlink" x="0px" y="0px"
	 viewBox="0 0 217.6 140.8" style="enable-background:new 0 0 217.6 140.8;" xml:space="preserve">
<style type="text/css">
	.st0{clip-path:url(#SVGID_00000145769092242248795370000015498566241892754310_);}
	.st1{clip-path:url(#SVGID_00000022555405688190294490000011530773683125176971_);}
	.st2{fill:#A7A9AB;}
	.st3{fill:#FFFFFF;}
	.st4{fill:#59C9F4;}
	.st5{clip-path:url(#SVGID_00000026880733569537021310000016354714461609259907_);}
	.st6{clip-path:url(#SVGID_00000048500228942406979640000004075756730133418938_);}
	.st7{clip-path:url(#SVGID_00000107563203939776814550000013720169847688258466_);}
	.st8{clip-path:url(#SVGID_00000178178939036341886030000000531922033409448077_);}
	.st9{clip-path:url(#SVGID_00000147183438325374020720000000652990599673053340_);}
	.st10{clip-path:url(#SVGID_00000068662969546393321460000007356793979233445272_);}
	.st11{clip-path:url(#SVGID_00000022557957754045380490000008357003212798730165_);}
	.st12{clip-path:url(#SVGID_00000157282147433684985410000017462955004156966581_);}
	.st13{clip-path:url(#SVGID_00000101803444712571124220000000074938801610902914_);}
	.st14{clip-path:url(#SVGID_00000011723634048569776490000015932296077655883914_);}
	.st15{clip-path:url(#SVGID_00000045593907764191703990000014255390012995000980_);}
	.st16{clip-path:url(#SVGID_00000010294988102726397980000014870472188164827280_);}
</style>
<g>
	<defs>
		<rect id="SVGID_1_" x="264.9" y="82.6" width="217" height="63.8"/>
	</defs>
	<clipPath id="SVGID_00000152984883186369049180000009391204062372440963_">
		<use xlink:href="#SVGID_1_"  style="overflow:visible;"/>
	</clipPath>
	<g style="clip-path:url(#SVGID_00000152984883186369049180000009391204062372440963_);">
		<path d="M474.4,145.6H273.1c-4.1,0-7.4-3.3-7.4-7.4V90.6c0-4.1,3.3-7.4,7.4-7.4h201.2c4.1,0,7.4,3.3,7.4,7.4v47.7
			C481.7,142.3,478.4,145.6,474.4,145.6"/>
	</g>
</g>
<g>
	<defs>
		<rect id="SVGID_00000156545535900538419140000009577235350107843209_" x="264.9" y="81.6" width="217.6" height="64.8"/>
	</defs>
	<clipPath id="SVGID_00000106108273391763266470000002713691266926598820_">
		<use xlink:href="#SVGID_00000156545535900538419140000009577235350107843209_"  style="overflow:visible;"/>
	</clipPath>
	<g style="clip-path:url(#SVGID_00000106108273391763266470000002713691266926598820_);">
		<path class="st2" d="M273.1,84c-3.6,0-6.6,2.9-6.6,6.6v47.7c0,3.6,2.9,6.6,6.6,6.6h201.2c3.6,0,6.6-2.9,6.6-6.6V90.6
			c0-3.6-2.9-6.6-6.6-6.6H273.1z M474.4,146.4H273.1c-4.5,0-8.2-3.7-8.2-8.2V90.6c0-4.5,3.7-8.2,8.2-8.2h201.2
			c4.5,0,8.2,3.7,8.2,8.2v47.7C482.5,142.7,478.9,146.4,474.4,146.4"/>
	</g>
</g>
<path class="st3" d="M437.1,130.7h3v-20.1h-3V130.7z M464.1,117.8l-3.4,8.7h-0.1l-3.6-8.7h-3.2l5.4,12.2l-3.1,6.8h3.1l8.2-19H464.1z
	 M447.1,128.4c-1,0-2.4-0.5-2.4-1.7c0-1.6,1.7-2.1,3.2-2.1c1.3,0,1.9,0.3,2.7,0.7C450.5,127.1,448.9,128.4,447.1,128.4 M447.5,117.4
	c-2.2,0-4.4,1-5.4,3.1l2.7,1.1c0.6-1.1,1.6-1.5,2.7-1.5c1.6,0,3.1,0.9,3.2,2.6v0.2c-0.5-0.3-1.7-0.8-3.1-0.8c-2.9,0-5.8,1.6-5.8,4.5
	c0,2.7,2.4,4.4,5,4.4c2,0,3.1-0.9,3.8-2h0.1v1.6h2.9v-7.7C453.6,119.4,450.9,117.4,447.5,117.4 M428.9,120.2h-4.3v-6.9h4.3
	c2.2,0,3.5,1.9,3.5,3.4C432.4,118.4,431.2,120.2,428.9,120.2 M428.9,110.6h-7.2v20.1h3V123h4.2c3.3,0,6.6-2.4,6.6-6.2
	S432.2,110.6,428.9,110.6 M389.6,128.4c-2.1,0-3.8-1.7-3.8-4.1c0-2.4,1.7-4.2,3.8-4.2c2,0,3.7,1.8,3.7,4.2
	C393.3,126.6,391.7,128.4,389.6,128.4 M393.1,118.9H393c-0.7-0.8-2-1.5-3.6-1.5c-3.4,0-6.6,3-6.6,6.9c0,3.8,3.1,6.8,6.6,6.8
	c1.6,0,2.9-0.7,3.6-1.6h0.1v1c0,2.6-1.4,4-3.7,4c-1.8,0-3-1.3-3.4-2.4l-2.6,1.1c0.8,1.8,2.7,4,6.1,4c3.5,0,6.5-2.1,6.5-7.1v-12.3
	h-2.9V118.9z M398,130.7h3v-20.1h-3V130.7z M405.4,124c-0.1-2.6,2-4,3.6-4c1.2,0,2.2,0.6,2.5,1.4L405.4,124z M414.8,121.7
	c-0.6-1.5-2.3-4.4-5.9-4.4c-3.5,0-6.4,2.8-6.4,6.8c0,3.8,2.9,6.8,6.8,6.8c3.1,0,4.9-1.9,5.7-3l-2.3-1.6c-0.8,1.1-1.8,1.9-3.4,1.9
	s-2.6-0.7-3.3-2.1l9.1-3.8L414.8,121.7z M341.9,119.5v2.9h6.9c-0.2,1.6-0.8,2.8-1.6,3.7c-1,1-2.6,2.1-5.4,2.1
	c-4.3,0-7.6-3.4-7.6-7.7c0-4.3,3.3-7.7,7.6-7.7c2.3,0,4,0.9,5.2,2.1l2-2.1c-1.7-1.7-4-2.9-7.3-2.9c-5.9,0-10.8,4.8-10.8,10.6
	s4.9,10.6,10.8,10.6c3.2,0,5.5-1,7.4-3c1.9-1.9,2.5-4.6,2.5-6.8c0-0.7-0.1-1.3-0.2-1.8H341.9z M359.7,128.4c-2.1,0-3.9-1.7-3.9-4.1
	c0-2.5,1.8-4.1,3.9-4.1s3.9,1.7,3.9,4.1C363.6,126.7,361.8,128.4,359.7,128.4 M359.7,117.4c-3.8,0-6.9,2.9-6.9,6.8
	c0,3.9,3.1,6.8,6.9,6.8s6.9-2.9,6.9-6.8C366.6,120.3,363.5,117.4,359.7,117.4 M374.7,128.4c-2.1,0-3.9-1.7-3.9-4.1
	c0-2.5,1.8-4.1,3.9-4.1c2.1,0,3.9,1.7,3.9,4.1C378.6,126.7,376.8,128.4,374.7,128.4 M374.7,117.4c-3.8,0-6.9,2.9-6.9,6.8
	c0,3.9,3.1,6.8,6.9,6.8c3.8,0,6.9-2.9,6.9-6.8C381.6,120.3,378.5,117.4,374.7,117.4"/>
<path class="st4" d="M281.9,94.6c-0.5,0.5-0.7,1.3-0.7,2.3v35.5c0,1,0.3,1.8,0.7,2.3l0.1,0.1l19.9-19.9v-0.5L282,94.4"/>
<g>
	<defs>
		<rect id="SVGID_00000141436042901030729670000013470049229058161327_" x="301.9" y="107.7" width="16" height="13.8"/>
	</defs>
	<clipPath id="SVGID_00000091737569780529982250000002344679110022337439_">
		<use xlink:href="#SVGID_00000141436042901030729670000013470049229058161327_"  style="overflow:visible;"/>
	</clipPath>
	<g style="clip-path:url(#SVGID_00000091737569780529982250000002344679110022337439_);">
		<g>
			<defs>
				<path id="SVGID_00000098902713317609042670000015670486104729041585_" d="M301.9,114.3v0.5l6.6,6.6l0.1-0.1l7.9-4.5
					c2.2-1.3,2.2-3.4,0-4.6l-7.9-4.5l-0.2-0.1L301.9,114.3z"/>
			</defs>
			<clipPath id="SVGID_00000116195670694727240040000017691488523988328072_">
				<use xlink:href="#SVGID_00000098902713317609042670000015670486104729041585_"  style="overflow:visible;"/>
			</clipPath>
			<g style="clip-path:url(#SVGID_00000116195670694727240040000017691488523988328072_);">
				<g>
					<defs>
						<path id="SVGID_00000085950744789162627560000013166087058016686479_" d="M301.9,114.3v0.5l6.6,6.6l0.1-0.1l7.9-4.5
							c2.2-1.3,2.2-3.4,0-4.6l-7.9-4.5l-0.2-0.1L301.9,114.3z"/>
					</defs>
					<clipPath id="SVGID_00000041976075677004414850000004569111570515506578_">
						<use xlink:href="#SVGID_00000085950744789162627560000013166087058016686479_"  style="overflow:visible;"/>
					</clipPath>
					<g style="clip-path:url(#SVGID_00000041976075677004414850000004569111570515506578_);">
						<g transform="matrix(0.1,0,0,-0.1,36.9,115.94)">
							
								<image style="overflow:visible;enable-background:new    ;" width="165" height="138" id="image5" xlink:href="7F6D3AA8.jpg"  transform="matrix(0.1 0 0 -0.1 301.8258 121.5201)">
							</image>
						</g>
					</g>
				</g>
			</g>
		</g>
	</g>
</g>
<g>
	<defs>
		<rect id="SVGID_00000018922108177831050320000016444453050612139913_" x="281.9" y="114.6" width="27" height="21"/>
	</defs>
	<clipPath id="SVGID_00000026865634464848043100000000064363387342621097_">
		<use xlink:href="#SVGID_00000018922108177831050320000016444453050612139913_"  style="overflow:visible;"/>
	</clipPath>
	<g style="clip-path:url(#SVGID_00000026865634464848043100000000064363387342621097_);">
		<g>
			<defs>
				<path id="SVGID_00000060753387499340133670000001083464825158154889_" d="M281.9,134.6c0.7,0.8,2,0.9,3.3,0.1l23.5-13.3
					l-6.8-6.8L281.9,134.6z"/>
			</defs>
			<clipPath id="SVGID_00000181787942795165624090000007304077355037458100_">
				<use xlink:href="#SVGID_00000060753387499340133670000001083464825158154889_"  style="overflow:visible;"/>
			</clipPath>
			<g style="clip-path:url(#SVGID_00000181787942795165624090000007304077355037458100_);">
				<g>
					<defs>
						<path id="SVGID_00000108288595897458098470000004795133188944361386_" d="M281.9,134.6c0.7,0.8,2,0.9,3.3,0.1l23.5-13.3
							l-6.8-6.8L281.9,134.6z"/>
					</defs>
					<clipPath id="SVGID_00000101085012134558243230000006894637014514371725_">
						<use xlink:href="#SVGID_00000108288595897458098470000004795133188944361386_"  style="overflow:visible;"/>
					</clipPath>
					<g style="clip-path:url(#SVGID_00000101085012134558243230000006894637014514371725_);">
						<g>
							<defs>
								<path id="SVGID_00000149345609474056877850000001004727932396140439_" d="M291.6,104.8L271.5,125l23.8,23.8l20.1-20.1
									L291.6,104.8z M295.3,101.2l-3.7,3.7l23.8,23.8l3.7-3.7L295.3,101.2z"/>
							</defs>
							<clipPath id="SVGID_00000066481308383350911060000002583769668544939953_">
								<use xlink:href="#SVGID_00000149345609474056877850000001004727932396140439_"  style="overflow:visible;"/>
							</clipPath>
							<g style="clip-path:url(#SVGID_00000066481308383350911060000002583769668544939953_);">
								<g transform="matrix(0.1,0,0,-0.1,16.9,129.74)">
									
										<image style="overflow:visible;enable-background:new    ;" width="269" height="207" id="image8" xlink:href="7F6D3AA9.jpg"  transform="matrix(0.1 0 0 -0.1 281.8258 135.3201)">
									</image>
								</g>
							</g>
						</g>
					</g>
				</g>
			</g>
		</g>
	</g>
</g>
<g>
	<defs>
		<rect id="SVGID_00000008836711643899469900000010683104832157296526_" x="281.9" y="93.6" width="27" height="21"/>
	</defs>
	<clipPath id="SVGID_00000011742040659134596660000012495766980824487321_">
		<use xlink:href="#SVGID_00000008836711643899469900000010683104832157296526_"  style="overflow:visible;"/>
	</clipPath>
	<g style="clip-path:url(#SVGID_00000011742040659134596660000012495766980824487321_);">
		<g>
			<defs>
				<path id="SVGID_00000181788813570050439810000016341982719515935928_" d="M281.9,94.5l20,20l6.8-6.8l-23.5-13.3
					c-0.6-0.4-1.3-0.5-1.8-0.5C282.8,93.9,282.3,94.1,281.9,94.5"/>
			</defs>
			<clipPath id="SVGID_00000135669095520275162540000018204054564679326113_">
				<use xlink:href="#SVGID_00000181788813570050439810000016341982719515935928_"  style="overflow:visible;"/>
			</clipPath>
			<g style="clip-path:url(#SVGID_00000135669095520275162540000018204054564679326113_);">
				<g>
					<defs>
						<path id="SVGID_00000104667724928130515360000000036871816479851938_" d="M281.9,94.5l20,20l6.8-6.8l-23.5-13.3
							c-0.6-0.4-1.3-0.5-1.8-0.5C282.8,93.9,282.3,94.1,281.9,94.5"/>
					</defs>
					<clipPath id="SVGID_00000163775298824611778080000006239832344657337246_">
						<use xlink:href="#SVGID_00000104667724928130515360000000036871816479851938_"  style="overflow:visible;"/>
					</clipPath>
					<g style="clip-path:url(#SVGID_00000163775298824611778080000006239832344657337246_);">
						<g>
							<defs>
								<path id="SVGID_00000077304165410043132640000011959058775834674322_" d="M271.5,104.3l13.2,13.2l23.8-23.8l-13.2-13.2
									L271.5,104.3z M284.7,117.5l10.6,10.6l23.8-23.8l-10.6-10.6L284.7,117.5z"/>
							</defs>
							<clipPath id="SVGID_00000163777418094415138680000003393687597228507824_">
								<use xlink:href="#SVGID_00000077304165410043132640000011959058775834674322_"  style="overflow:visible;"/>
							</clipPath>
							<g style="clip-path:url(#SVGID_00000163777418094415138680000003393687597228507824_);">
								<g transform="matrix(0.1,0,0,-0.1,16.9,109.04)">
									
										<image style="overflow:visible;enable-background:new    ;" width="269" height="207" id="image11" xlink:href="7F6D3AAF.jpg"  transform="matrix(0.1 0 0 -0.1 281.8258 114.6201)">
									</image>
								</g>
							</g>
						</g>
					</g>
				</g>
			</g>
		</g>
	</g>
</g>
<path class="st3" d="M338.9,95.7c-0.6-0.5-1.4-0.9-2.3-0.9c-2,0-3.5,1.6-3.5,3.6c0,2,1.5,3.6,3.5,3.6c1.7,0,2.9-1,3-2.6h-2.7v-1.1
	h4.1c0,3.3-1.8,4.9-4.5,4.9c-2.7,0-4.8-2.2-4.8-4.8c0-2.7,2.1-4.9,4.8-4.9c1.2,0,2.4,0.5,3.2,1.2"/>
<path class="st3" d="M348.4,93.7v1.2h-4.3v3h3.8v1.2h-3.8v2.9h4.5v1.2h-5.7v-9.5"/>
<path class="st3" d="M356.7,93.7v1.2h-2.9v8.3h-1.3v-8.3h-2.9v-1.2"/>
<path class="st3" d="M361.5,103.2h1.3v-9.5h-1.3V103.2z"/>
<path class="st3" d="M371.5,93.7v1.2h-2.9v8.3h-1.3v-8.3h-2.9v-1.2"/>
<path class="st3" d="M380.5,102.1c2,0,3.5-1.6,3.5-3.6c0-2-1.5-3.6-3.5-3.6c-2,0-3.5,1.6-3.5,3.6C377,100.5,378.5,102.1,380.5,102.1
	 M380.5,93.6c2.7,0,4.8,2.2,4.8,4.9c0,2.7-2.1,4.8-4.8,4.8c-2.7,0-4.8-2.2-4.8-4.8C375.7,95.8,377.8,93.6,380.5,93.6"/>
<path class="st3" d="M392.9,103.2l-4.3-7.1v7.1h-1.3v-9.5h1.3l4.3,7.1v-7.1h1.3v9.5"/>
<g>
	<path d="M209.4,101.2H8.2c-4.1,0-7.4-3.3-7.4-7.4V46.1c0-4.1,3.3-7.4,7.4-7.4h201.2c4.1,0,7.4,3.3,7.4,7.4v47.7
		C216.8,97.9,213.5,101.2,209.4,101.2"/>
	<g>
		<defs>
			<rect id="SVGID_00000127750612842975319780000002487988423872529825_" x="0" y="37.9" width="217.6" height="65"/>
		</defs>
		<clipPath id="SVGID_00000155135633227206131790000005047119707326321841_">
			<use xlink:href="#SVGID_00000127750612842975319780000002487988423872529825_"  style="overflow:visible;"/>
		</clipPath>
		<g style="clip-path:url(#SVGID_00000155135633227206131790000005047119707326321841_);">
			<path class="st2" d="M8.2,39.5c-3.6,0-6.6,2.9-6.6,6.6v47.7c0,3.6,2.9,6.6,6.6,6.6h201.2c3.6,0,6.6-2.9,6.6-6.6V46.1
				c0-3.6-2.9-6.6-6.6-6.6H8.2z M209.4,102H8.2C3.7,102,0,98.3,0,93.8V46.1c0-4.5,3.7-8.2,8.2-8.2h201.2c4.5,0,8.2,3.7,8.2,8.2v47.7
				C217.6,98.3,213.9,102,209.4,102"/>
		</g>
	</g>
	<path class="st3" d="M75.5,54.7l-0.8-2.6c-0.2-0.6-0.4-1.4-0.5-2h0c-0.2,0.6-0.3,1.3-0.5,2l-0.8,2.6H75.5z M72.4,56.1l-0.9,3h-2
		l3.4-10.5h2.4l3.4,10.5h-2.1l-1-3"/>
	<path class="st3" d="M81.7,51.5l1.2,3.9c0.2,0.7,0.4,1.3,0.5,1.9h0c0.1-0.6,0.3-1.2,0.5-1.9l1.2-3.9h2l-2.9,7.6h-1.9l-2.8-7.6"/>
	<path class="st3" d="M93,55.4c-1.4,0-2.7,0.3-2.7,1.4c0,0.8,0.5,1.1,1.1,1.1c0.8,0,1.3-0.5,1.5-1c0.1-0.1,0.1-0.3,0.1-0.4V55.4z
		 M94.9,57.3c0,0.7,0,1.4,0.1,1.8h-1.7l-0.1-0.8h-0.1c-0.4,0.6-1.2,1-2.2,1c-1.5,0-2.4-1.1-2.4-2.3c0-1.9,1.7-2.9,4.5-2.9V54
		c0-0.5-0.2-1.3-1.5-1.3c-0.8,0-1.5,0.2-2,0.6L89,52c0.6-0.3,1.5-0.7,2.8-0.7c2.4,0,3.1,1.5,3.1,3.2"/>
	<path class="st3" d="M97.6,51.5h1.9v7.6h-1.9V51.5z M98.5,50.4c-0.6,0-1.1-0.5-1.1-1c0-0.6,0.4-1,1.1-1c0.7,0,1.1,0.5,1.1,1
		C99.6,50,99.2,50.4,98.5,50.4"/>
	<path class="st3" d="M102.3,59.1h1.9V48h-1.9V59.1z"/>
	<path class="st3" d="M111,55.4c-1.4,0-2.7,0.3-2.7,1.4c0,0.8,0.5,1.1,1.1,1.1c0.8,0,1.3-0.5,1.5-1c0-0.1,0-0.3,0-0.4V55.4z
		 M112.9,57.3c0,0.7,0,1.4,0.1,1.8h-1.7l-0.1-0.8h0c-0.5,0.6-1.2,1-2.2,1c-1.5,0-2.4-1.1-2.4-2.3c0-1.9,1.7-2.9,4.5-2.9V54
		c0-0.5-0.2-1.3-1.5-1.3c-0.8,0-1.5,0.2-2,0.6L107,52c0.6-0.3,1.5-0.7,2.7-0.7c2.4,0,3.1,1.5,3.1,3.2"/>
	<path class="st3" d="M117.5,56c0,0.2,0,0.3,0,0.5c0.2,0.8,0.9,1.3,1.7,1.3c1.2,0,1.9-1,1.9-2.5c0-1.3-0.6-2.4-1.9-2.4
		c-0.8,0-1.5,0.6-1.7,1.4c0,0.1-0.1,0.3-0.1,0.5V56z M115.6,48h1.9v4.5h0c0.5-0.7,1.3-1.2,2.4-1.2c1.9,0,3.2,1.5,3.2,3.9
		c0,2.7-1.7,4.1-3.4,4.1c-1,0-1.9-0.4-2.4-1.3h0l-0.1,1.1h-1.6c0-0.5,0.1-1.4,0.1-2.1"/>
	<path class="st3" d="M125.4,59.1h1.9V48h-1.9V59.1z"/>
	<path class="st3" d="M134.8,54.5c0-0.7-0.3-1.9-1.6-1.9c-1.2,0-1.7,1.1-1.8,1.9H134.8z M131.5,55.8c0,1.4,1.1,2,2.3,2
		c0.9,0,1.5-0.1,2.1-0.3l0.3,1.3c-0.7,0.3-1.6,0.5-2.7,0.5c-2.5,0-3.9-1.5-3.9-3.8c0-2.1,1.3-4.1,3.7-4.1c2.5,0,3.3,2,3.3,3.7
		c0,0.4,0,0.6-0.1,0.8"/>
	<path class="st3" d="M146.1,57.9c1.1,0,1.9-1.1,1.9-2.6c0-1.2-0.5-2.6-1.8-2.6c-1.4,0-1.9,1.3-1.9,2.6
		C144.3,56.8,145,57.9,146.1,57.9L146.1,57.9z M146.1,59.3c-2.1,0-3.8-1.5-3.8-3.9c0-2.5,1.6-4,3.9-4c2.3,0,3.8,1.6,3.8,3.9
		C150,58,148,59.3,146.1,59.3"/>
	<path class="st3" d="M152.2,53.8c0-0.9,0-1.6-0.1-2.3h1.7l0.1,1.1h0c0.3-0.6,1.2-1.3,2.4-1.3c1.3,0,2.7,0.9,2.7,3.3v4.5h-1.9v-4.3
		c0-1.1-0.4-1.9-1.4-1.9c-0.8,0-1.3,0.5-1.5,1.1c-0.1,0.2-0.1,0.4-0.1,0.6v4.5h-1.9"/>
	<path class="st3" d="M168,49.6v1.9h1.8v1.4H168v3.3c0,0.9,0.2,1.4,1,1.4c0.3,0,0.5,0,0.8-0.1l0,1.4c-0.3,0.1-0.8,0.2-1.4,0.2
		c-0.7,0-1.3-0.2-1.7-0.6c-0.4-0.4-0.6-1.1-0.6-2.1v-3.6H165v-1.4h1.1v-1.4"/>
	<path class="st3" d="M171.9,48h1.9v4.5h0c0.2-0.4,0.6-0.7,1-0.9c0.4-0.2,0.8-0.3,1.3-0.3c1.3,0,2.7,0.9,2.7,3.3v4.5h-1.9v-4.3
		c0-1.1-0.4-1.9-1.5-1.9c-0.7,0-1.3,0.5-1.5,1.1c-0.1,0.2-0.1,0.4-0.1,0.6v4.6h-1.9"/>
	<path class="st3" d="M186.2,54.5c0-0.7-0.3-1.9-1.6-1.9c-1.2,0-1.7,1.1-1.8,1.9H186.2z M182.9,55.8c0,1.4,1.1,2,2.3,2
		c0.9,0,1.5-0.1,2.1-0.3l0.3,1.3c-0.7,0.3-1.6,0.5-2.7,0.5c-2.5,0-3.9-1.5-3.9-3.8c0-2.1,1.3-4.1,3.7-4.1c2.5,0,3.3,2,3.3,3.7
		c0,0.4,0,0.6-0.1,0.8"/>
	<path class="st3" d="M48.6,69.3c-0.1-5.2,4.3-7.7,4.5-7.9c-2.4-3.6-6.2-4-7.6-4.1c-3.2-0.3-6.3,1.9-7.9,1.9c-1.7,0-4.1-1.9-6.8-1.8
		c-3.5,0.1-6.7,2.1-8.5,5.2c-3.7,6.3-0.9,15.7,2.6,20.8c1.8,2.5,3.8,5.3,6.5,5.2c2.6-0.1,3.6-1.7,6.8-1.7c3.1,0,4.1,1.7,6.8,1.6
		c2.8,0,4.6-2.5,6.3-5.1c2-2.9,2.8-5.7,2.9-5.9C54,77.6,48.6,75.6,48.6,69.3"/>
	<path class="st3" d="M43.4,54c1.4-1.8,2.4-4.2,2.1-6.6c-2,0.1-4.6,1.4-6.1,3.1c-1.3,1.5-2.5,4-2.2,6.4C39.6,57.1,41.9,55.7,43.4,54
		"/>
	<path class="st3" d="M80.2,79.3l-1.8-5.6c-0.2-0.6-0.6-1.9-1.1-4h-0.1c-0.2,0.9-0.6,2.3-1,4l-1.8,5.6H80.2z M86.5,88.2h-3.7l-2-6.3
		h-7L72,88.2h-3.6l6.9-21.4h4.3"/>
	<path class="st3" d="M100.8,80.4c0-1.5-0.3-2.7-1-3.7c-0.7-1-1.7-1.5-3-1.5c-0.8,0-1.6,0.3-2.3,0.8c-0.7,0.6-1.1,1.3-1.4,2.2
		c-0.1,0.4-0.2,0.8-0.2,1v2.6c0,1.1,0.3,2.1,1,2.8c0.7,0.8,1.6,1.2,2.7,1.2c1.3,0,2.3-0.5,3-1.5C100.4,83.4,100.8,82,100.8,80.4
		 M104.3,80.3c0,2.6-0.7,4.7-2.1,6.2c-1.3,1.4-2.9,2-4.7,2c-2,0-3.5-0.7-4.4-2.2h-0.1v8.1h-3.4V77.8c0-1.7,0-3.3-0.1-5.1h3l0.2,2.5
		h0.1c1.1-1.8,2.9-2.8,5.2-2.8c1.8,0,3.3,0.7,4.6,2.2C103.6,76,104.3,77.9,104.3,80.3"/>
	<path class="st3" d="M118.5,80.4c0-1.5-0.3-2.7-1-3.7c-0.7-1-1.7-1.5-3-1.5c-0.8,0-1.6,0.3-2.3,0.8c-0.7,0.6-1.1,1.3-1.3,2.2
		c-0.1,0.4-0.2,0.8-0.2,1v2.6c0,1.1,0.3,2.1,1,2.8c0.7,0.8,1.6,1.2,2.7,1.2c1.3,0,2.3-0.5,3-1.5C118.2,83.4,118.5,82,118.5,80.4
		 M122,80.3c0,2.6-0.7,4.7-2.1,6.2c-1.3,1.4-2.9,2-4.7,2c-2,0-3.5-0.7-4.4-2.2h-0.1v8.1h-3.4V77.8c0-1.7,0-3.3-0.1-5.1h3l0.2,2.5
		h0.1c1.1-1.8,2.9-2.8,5.2-2.8c1.8,0,3.3,0.7,4.6,2.2C121.4,76,122,77.9,122,80.3"/>
	<path class="st3" d="M141.9,82.2c0,1.8-0.6,3.3-1.9,4.5c-1.4,1.2-3.3,1.9-5.8,1.9c-2.3,0-4.2-0.4-5.6-1.3l0.8-2.9
		c1.5,0.9,3.2,1.4,5,1.4c1.3,0,2.3-0.3,3-0.9c0.7-0.6,1.1-1.4,1.1-2.3c0-0.9-0.3-1.6-0.9-2.2s-1.6-1.1-3-1.7
		c-3.8-1.4-5.6-3.5-5.6-6.1c0-1.8,0.7-3.2,2-4.3c1.3-1.1,3.1-1.7,5.2-1.7c2,0,3.6,0.3,4.9,1l-0.9,2.8c-1.2-0.7-2.6-1-4.1-1
		c-1.2,0-2.2,0.3-2.8,0.9c-0.6,0.5-0.9,1.2-0.9,1.9c0,0.8,0.3,1.5,1,2.1c0.6,0.5,1.6,1.1,3.1,1.7c1.8,0.7,3.2,1.6,4.1,2.6
		C141.5,79.5,141.9,80.7,141.9,82.2"/>
	<path class="st3" d="M153.3,75.3h-3.8v7.5c0,1.9,0.7,2.9,2,2.9c0.6,0,1.1-0.1,1.5-0.2l0.1,2.6c-0.7,0.3-1.6,0.4-2.7,0.4
		c-1.4,0-2.4-0.4-3.2-1.2c-0.8-0.8-1.1-2.2-1.1-4.2v-7.8h-2.3v-2.6h2.3v-2.8l3.4-1v3.8h3.8"/>
	<path class="st3" d="M166.8,80.5c0-1.4-0.3-2.6-0.9-3.7c-0.7-1.2-1.7-1.9-3.1-1.9c-1.4,0-2.4,0.6-3.1,1.9c-0.6,1-0.9,2.3-0.9,3.7
		c0,1.4,0.3,2.6,0.9,3.7c0.7,1.2,1.8,1.9,3.1,1.9c1.3,0,2.3-0.6,3.1-1.9C166.5,83.1,166.8,81.9,166.8,80.5 M170.4,80.3
		c0,2.4-0.7,4.3-2,5.9c-1.4,1.6-3.3,2.4-5.7,2.4c-2.3,0-4.1-0.8-5.4-2.3c-1.3-1.5-2-3.4-2-5.7c0-2.4,0.7-4.4,2.1-5.9
		c1.4-1.5,3.3-2.3,5.6-2.3c2.3,0,4.1,0.8,5.5,2.3C169.7,76.2,170.4,78,170.4,80.3"/>
	<path class="st3" d="M181.5,75.8c-0.3-0.1-0.7-0.1-1.1-0.1c-1.2,0-2.1,0.5-2.8,1.4c-0.6,0.8-0.9,1.8-0.9,3.1v8.1h-3.4l0-10.6
		c0-1.8,0-3.4-0.1-4.9h3l0.1,3h0.1c0.4-1,0.9-1.8,1.7-2.4c0.8-0.6,1.6-0.8,2.5-0.8c0.3,0,0.6,0,0.9,0.1"/>
	<path class="st3" d="M193.6,78.8c0-1-0.2-1.9-0.7-2.6c-0.6-1-1.5-1.4-2.7-1.4c-1.1,0-2,0.5-2.7,1.4c-0.6,0.7-0.9,1.6-1,2.7H193.6z
		 M196.9,79.7c0,0.6,0,1.1-0.1,1.6h-10.3c0,1.5,0.5,2.7,1.5,3.5c0.9,0.7,2,1.1,3.4,1.1c1.5,0,2.9-0.2,4.2-0.7l0.5,2.4
		c-1.5,0.6-3.2,1-5.2,1c-2.4,0-4.3-0.7-5.6-2.1c-1.4-1.4-2.1-3.3-2.1-5.7c0-2.3,0.6-4.3,1.9-5.8c1.3-1.7,3.1-2.5,5.4-2.5
		c2.2,0,3.9,0.8,5.1,2.5C196.4,76.2,196.9,77.8,196.9,79.7"/>
</g>
</svg>
