<?xml version="1.0" encoding="utf-8"?>
<!-- Generator: Adobe Illustrator 26.1.0, SVG Export Plug-In . SVG Version: 6.00 Build 0)  -->
<svg version="1.1" id="Layer_1" xmlns="http://www.w3.org/2000/svg" xmlns:xlink="http://www.w3.org/1999/xlink" x="0px" y="0px"
	 viewBox="0 0 75 24" style="enable-background:new 0 0 75 24;" xml:space="preserve">
<style type="text/css">
	.st0{fill:#8E3B3D;}
</style>
<g id="Artboard_32">
	<path id="Icon_simple-visa" class="st0" d="M54,3.7C52.3,3.2,50.5,3,48.7,3c-5.8,0-10,2.4-10,5.8c0,2.5,2.9,3.9,5.2,4.7
		c2.3,0.9,3.1,1.4,3.1,2.2c0,1.2-1.8,1.7-3.5,1.7c-1.9,0-3.8-0.3-5.6-0.9l-0.7-0.3l-0.8,3.9c2.2,0.6,4.4,0.9,6.6,0.9
		c6.2,0,10.3-2.4,10.3-6c0-2-1.5-3.5-4.9-4.7c-2-0.8-3.3-1.3-3.3-2.2c0-0.7,1.1-1.5,3.4-1.5c1.5,0,3,0.2,4.4,0.7l0.5,0.2l0.8-3.8
		L54,3.7L54,3.7z M69.2,3.3h-4.6c-1.4,0-2.5,0.3-3.1,1.4l-8.8,16h6.2l1.2-2.6h7.6c0.2,0.6,0.7,2.6,0.7,2.6H74L69.2,3.3z M30.4,3.2
		h5.9l-3.7,17.4h-5.9L30.4,3.2L30.4,3.2z M15.4,12.8l0.6,2.4l5.8-11.9H28l-9.3,17.4h-6.2L7.3,6C7.3,5.7,7.1,5.5,6.8,5.4
		C4.9,4.6,3,4,1,3.7l0.1-0.4h9.5c1.3,0,2.3,0.4,2.7,1.5L15.4,12.8L15.4,12.8L15.4,12.8z M61.9,14.6l2.4-4.9c0,0,0.5-1,0.8-1.7
		l0.4,1.5l1.4,5L61.9,14.6L61.9,14.6L61.9,14.6z"/>
</g>
</svg>
