<?xml version="1.0" encoding="utf-8"?>
<!-- Generator: Adobe Illustrator 26.1.0, SVG Export Plug-In . SVG Version: 6.00 Build 0)  -->
<svg version="1.1" id="Layer_1" xmlns="http://www.w3.org/2000/svg" xmlns:xlink="http://www.w3.org/1999/xlink" x="0px" y="0px"
	 viewBox="0 0 23 22" style="enable-background:new 0 0 23 22;" xml:space="preserve">
<g id="Artboard_45">
	<path id="Icon_metro-instagram" d="M18.9,0.3H4.6C2.6,0.3,1,1.9,1,3.9v14.3c0,2,1.6,3.5,3.6,3.6h14.3c2,0,3.5-1.6,3.6-3.6V3.9
		C22.4,1.9,20.8,0.3,18.9,0.3z M7.9,9.7h7.7c0.7,2.1-0.4,4.5-2.5,5.2c-2.1,0.7-4.5-0.4-5.2-2.5C7.6,11.5,7.6,10.5,7.9,9.7z
		 M19.7,9.7v8c0,0.7-0.6,1.3-1.3,1.3H5c-0.7,0-1.3-0.6-1.3-1.3v-8h2.1c-0.7,3.3,1.3,6.5,4.6,7.3s6.5-1.3,7.3-4.6
		c0.2-0.9,0.2-1.8,0-2.7H19.7z M19.7,5c0,0.4-0.3,0.7-0.7,0.7h-1.3c-0.4,0-0.7-0.3-0.7-0.7V3.6c0-0.4,0.3-0.7,0.7-0.7c0,0,0,0,0,0
		h1.3c0.4,0,0.7,0.3,0.7,0.7L19.7,5z"/>
</g>
</svg>
