<?xml version="1.0" encoding="utf-8"?>
<!-- Generator: Adobe Illustrator 26.1.0, SVG Export Plug-In . SVG Version: 6.00 Build 0)  -->
<svg version="1.1" id="Layer_1" xmlns="http://www.w3.org/2000/svg" xmlns:xlink="http://www.w3.org/1999/xlink" x="0px" y="0px"
	 viewBox="0 0 576 512" style="enable-background:new 0 0 576 512;" xml:space="preserve">
<style type="text/css">
	.st0{fill:#8E3B3D;}
</style>
<path class="st0" d="M186.3,258.2c0,12.2-9.7,21.5-22,21.5c-9.2,0-16-5.2-16-15c0-12.2,9.5-22,21.7-22
	C179.3,242.7,186.3,248.4,186.3,258.2z M80.5,209.7h-4.7c-1.5,0-3,1-3.2,2.7l-4.3,26.7l8.2-0.3c11,0,19.5-1.5,21.5-14.2
	C100.3,211.2,91.8,209.7,80.5,209.7z M364.5,209.7H360c-1.8,0-3,1-3.2,2.7l-4.2,26.7l8-0.3c13,0,22-3,22-18
	C382.5,210.2,373,209.7,364.5,209.7L364.5,209.7z M576,80v352c0,26.5-21.5,48-48,48H48c-26.5,0-48-21.5-48-48V80
	c0-26.5,21.5-48,48-48h480C554.5,32,576,53.5,576,80z M128.3,215.4c0-21-16.2-28-34.7-28h-40c-2.5,0-5,2-5.2,4.7L32,294.2
	c-0.3,2,1.2,4,3.2,4h19c2.7,0,5.2-2.9,5.5-5.7l4.5-26.6c1-7.2,13.2-4.7,18-4.7C110.8,261.2,128.3,244.2,128.3,215.4L128.3,215.4z
	 M212.5,224.2h-19c-3.8,0-4,5.5-4.2,8.2c-5.8-8.5-14.2-10-23.7-10c-24.5,0-43.2,21.5-43.2,45.2c0,19.5,12.2,32.2,31.7,32.2
	c9,0,20.2-4.9,26.5-11.9c-0.5,1.5-1,4.7-1,6.2c0,2.3,1,4,3.2,4H200c2.7,0,5-2.9,5.5-5.7l10.2-64.3
	C216,226.2,214.5,224.2,212.5,224.2L212.5,224.2z M253,322.1l63.7-92.6c0.5-0.5,0.5-1,0.5-1.7c0-1.7-1.5-3.5-3.2-3.5h-19.2
	c-1.7,0-3.5,1-4.5,2.5l-26.5,39l-11-37.5c-0.8-2.2-3-4-5.5-4h-18.7c-1.7,0-3.2,1.8-3.2,3.5c0,1.2,19.5,56.8,21.2,62.1
	c-2.7,3.8-20.5,28.6-20.5,31.6c0,1.8,1.5,3.2,3.2,3.2h19.2C250.3,324.6,252,323.6,253,322.1L253,322.1z M412.3,215.4
	c0-21-16.2-28-34.7-28h-39.7c-2.7,0-5.2,2-5.5,4.7l-16.2,102c-0.2,2,1.3,4,3.2,4h20.5c2,0,3.5-1.5,4-3.2l4.5-29
	c1-7.2,13.2-4.7,18-4.7C394.8,261.2,412.3,244.2,412.3,215.4L412.3,215.4z M496.5,224.2h-19c-3.8,0-4,5.5-4.3,8.2
	c-5.5-8.5-14-10-23.7-10c-24.5,0-43.2,21.5-43.2,45.2c0,19.5,12.2,32.2,31.7,32.2c9.3,0,20.5-4.9,26.5-11.9c-0.3,1.5-1,4.7-1,6.2
	c0,2.3,1,4,3.2,4H484c2.7,0,5-2.9,5.5-5.7l10.2-64.3C500,226.2,498.5,224.2,496.5,224.2L496.5,224.2z M544,190.9
	c0-2-1.5-3.5-3.2-3.5h-18.5c-1.5,0-3,1.2-3.2,2.7l-16.2,104l-0.3,0.5c0,1.8,1.5,3.5,3.5,3.5h16.5c2.5,0,5-2.9,5.2-5.7L544,191.2
	V190.9L544,190.9z M454,242.7c-12.2,0-21.7,9.7-21.7,22c0,9.7,7,15,16.2,15c12,0,21.7-9.2,21.7-21.5
	C470.3,248.4,463.3,242.7,454,242.7z"/>
</svg>
