<?xml version="1.0" encoding="UTF-8"?><svg id="a" xmlns="http://www.w3.org/2000/svg" viewBox="0 0 84.35 32.65"><defs><style>.cb{fill:#0079be;}.cc{fill:#fff;}.cd{fill:#8e3b3d;}</style></defs><path id="b" class="cb" d="M20.76,25.33c4.92,.02,9.41-4.01,9.41-8.92-.06-5.08-4.23-9.14-9.3-9.08-.04,0-.07,0-.11,0h-4.23c-4.9-.11-8.97,3.77-9.08,8.68,0,.13,0,.27,0,.4,.05,4.97,4.11,8.95,9.08,8.92h4.23Z"/><path id="c" class="cc" d="M16.54,8.07c-4.55,0-8.24,3.69-8.24,8.24,0,4.55,3.69,8.24,8.24,8.24,4.55,0,8.24-3.69,8.24-8.24h0c0-4.55-3.69-8.24-8.24-8.24Zm-5.22,8.24h0c0-2.16,1.34-4.09,3.35-4.87v9.75c-2.02-.78-3.35-2.71-3.35-4.88Zm7.09,4.88h0V11.44c2.69,1.03,4.04,4.05,3.01,6.74-.53,1.39-1.62,2.48-3.01,3.01h0Z"/><path id="d" class="cd" d="M33.05,11.2c0-.85-.44-.8-.87-.8v-.25c.37,.02,.75,.02,1.12,.02,.4,0,.94-.02,1.64-.02,2.45,0,3.78,1.64,3.78,3.31,0,.94-.55,3.29-3.9,3.29-.48,0-.93-.02-1.37-.02s-.84,0-1.27,.02v-.25c.57-.06,.84-.08,.87-.72v-4.59h0Zm.93,4.44h0c0,.73,.52,.81,.98,.81,2.04,0,2.72-1.54,2.72-2.95,.11-1.57-1.06-2.93-2.63-3.04-.11,0-.22,0-.33,0-.39,0-.57,.03-.74,.04v5.15h0Z"/><path id="e" class="cd" d="M39.05,16.51h.18c.27,0,.45,0,.45-.31v-2.56c0-.42-.14-.47-.49-.66v-.15c.45-.13,.97-.31,1.01-.34,.05-.03,.11-.05,.17-.05,.05,0,.07,.06,.07,.13v3.63c0,.31,.21,.31,.47,.31h.16v.25c-.32,0-.65-.02-.99-.02s-.68,0-1.03,.02v-.25h0Zm1.01-5.54h0c-.26,0-.46-.21-.46-.46s.21-.46,.46-.46c.25,0,.46,.2,.46,.46,0,.26-.21,.47-.46,.47Z"/><path id="f" class="cd" d="M41.98,13.69c0-.35-.1-.44-.55-.62v-.18c.42-.13,.84-.28,1.25-.46,.03,0,.06,.02,.06,.1v.62c.45-.41,1.03-.66,1.64-.71,.8,0,1.09,.59,1.09,1.32v2.44c0,.31,.21,.31,.47,.31h.17v.25c-.33,0-.66-.02-1-.02s-.68,0-1.02,.02v-.25h.17c.27,0,.45,0,.45-.31v-2.45c0-.54-.33-.8-.87-.8-.4,.06-.77,.22-1.1,.46v2.8c0,.31,.21,.31,.47,.31h.17v.25c-.33,0-.66-.02-1-.02s-.68,0-1.02,.02v-.25h.17c.27,0,.45,0,.45-.31v-2.51h0Z"/><path id="g" class="cd" d="M46.82,14.14c-.02,.18-.02,.37,0,.55-.04,.83,.57,1.54,1.39,1.64,.49-.03,.96-.26,1.28-.63l.13,.13c-.37,.62-1.03,1.02-1.75,1.07-1.05-.05-1.86-.93-1.81-1.98,0-.03,0-.05,0-.08,0-1.86,1.25-2.4,1.91-2.4,.83-.06,1.54,.57,1.6,1.4,0,.03,0,.06,0,.09,0,.06,0,.11,0,.17l-.09,.06h-2.66Zm1.68-.3h0c.24,0,.26-.12,.26-.24,.04-.44-.29-.83-.73-.87-.03,0-.07,0-.1,0-.58,0-.97,.43-1.09,1.11h1.65Z"/><path id="h" class="cd" d="M49.8,16.51h.26c.26,0,.45,0,.45-.31v-2.66c0-.29-.35-.35-.49-.43v-.14c.69-.29,1.07-.54,1.16-.54,.06,0,.08,.03,.08,.12v.85h.02c.24-.37,.63-.98,1.21-.98,.28-.01,.53,.21,.54,.49h0c.01,.26-.18,.48-.43,.49h-.01c-.3,0-.3-.23-.62-.23-.39,.05-.69,.39-.69,.79v2.22c0,.31,.19,.31,.45,.31h.53v.25c-.52,0-.92-.02-1.32-.02s-.79,0-1.13,.02v-.25h0Z"/><path id="i" class="cd" d="M53.44,15.44c.05,.63,.56,1.13,1.19,1.15,.37,.05,.71-.2,.76-.56,0-.04,0-.07,0-.11,0-1.12-2.06-.76-2.06-2.28,.04-.72,.66-1.26,1.37-1.22,.03,0,.06,0,.09,0,.38,0,.74,.1,1.08,.27l.07,.96h-.22c-.02-.54-.47-.96-1-.94h-.03c-.36-.04-.69,.22-.73,.59v.04c0,1.11,2.2,.77,2.2,2.25,0,.62-.5,1.29-1.63,1.29-.41-.01-.8-.12-1.15-.32l-.1-1.09,.17-.05h0Z"/><path id="j" class="cd" d="M64.7,11.86h-.24c-.13-.99-1.03-1.68-2.02-1.55h0c-1.49,0-2.69,1.22-2.69,2.71,0,.1,0,.19,.02,.29-.12,1.68,1.14,3.15,2.82,3.29,.95,0,1.76-.7,1.9-1.64l.22,.06-.22,1.38c-.66,.31-1.37,.48-2.09,.5-1.86,.14-3.47-1.25-3.61-3.11-.01-.15-.01-.3,0-.45,.08-1.91,1.68-3.39,3.59-3.33,.77,.04,1.52,.21,2.23,.5l.09,1.35h0Z"/><path id="k" class="cd" d="M65.04,16.51h.18c.27,0,.45,0,.45-.31v-5.27c0-.62-.14-.63-.5-.74v-.15c.34-.11,.66-.24,.97-.41,.07-.04,.14-.07,.21-.1,.06,0,.08,.06,.08,.13v6.54c0,.31,.21,.31,.47,.31h.16v.25c-.32,0-.65-.02-.99-.02s-.68,0-1.03,.02v-.25h0Z"/><path id="l" class="cd" d="M71.12,16.24c0,.17,.1,.18,.26,.18,.11,0,.26,0,.38,0v.2c-.46,.06-.92,.16-1.36,.29l-.05-.03v-.77c-.44,.47-1.04,.75-1.68,.79-.56,.01-1.03-.43-1.05-1,0-.04,0-.09,0-.13v-2.42c0-.25-.04-.48-.57-.53v-.18c.34,0,1.1-.07,1.22-.07,.1,0,.1,.07,.1,.27v2.44c0,.29,0,1.1,.82,1.1,.43-.07,.83-.27,1.15-.58v-2.55c0-.19-.45-.29-.79-.39v-.17c.85-.06,1.38-.13,1.48-.13,.08,0,.08,.07,.08,.17v3.49h0Z"/><path id="m" class="cd" d="M73.01,13.11c.38-.38,.88-.62,1.41-.68,1.02,.04,1.81,.9,1.76,1.92,0,.02,0,.05,0,.07,.05,1.31-.96,2.41-2.26,2.48-.46,0-.91-.11-1.31-.33l-.28,.22-.2-.1c.09-.56,.13-1.12,.13-1.68v-4.08c0-.62-.14-.63-.5-.74v-.15c.34-.11,.66-.24,.97-.41,.07-.04,.14-.08,.21-.1,.06,0,.07,.06,.07,.13v3.45h0Zm0,2.57h0c.03,.53,.45,.94,.97,.97,1.01,0,1.44-1,1.44-1.84,.05-.92-.61-1.73-1.51-1.87-.34,.04-.66,.2-.9,.45v2.3h0Z"/><path id="n" class="cd" d="M32.17,22.26h.07c.18,0,.38-.02,.38-.29v-2.7c0-.27-.2-.29-.38-.29h-.07v-.15c.2,0,.51,.02,.76,.02s.57-.02,.81-.02v.15h-.07c-.18,0-.38,.02-.38,.29v2.7c0,.27,.2,.29,.38,.29h.07v.15c-.25,0-.56-.02-.81-.02s-.56,.02-.76,.02v-.15h0Z"/><path id="o" class="cd" d="M33.74,22.44c-.25,0-.56-.02-.81-.02s-.55,.02-.76,.02h-.02v-.2h.09c.19,0,.36-.02,.36-.27v-2.7c0-.25-.17-.27-.36-.27h-.09v-.2h.02c.2,0,.51,.02,.76,.02s.57-.02,.81-.02h.02v.2h-.1c-.19,0-.36,.02-.36,.27v2.7c0,.25,.17,.27,.36,.27h.09v.2h-.02Zm-.02-.04h0v-.11h-.05c-.18,0-.4-.03-.4-.32v-2.7c0-.29,.22-.32,.4-.32h.05v-.11c-.24,0-.54,.02-.79,.02s-.54-.02-.74-.02v.11h.05c.18,0,.4,.03,.4,.32v2.7c0,.29-.22,.32-.4,.32h-.05v.11c.2,0,.49-.02,.73-.02s.55,.02,.79,.02Z"/><path id="p" class="cd" d="M37.28,21.4h.01v-1.94c.03-.23-.13-.45-.36-.48-.03,0-.06,0-.09,0h-.11v-.15c.24,0,.48,.02,.72,.02,.21,0,.42-.02,.63-.02v.15h-.08c-.22,0-.46,.04-.46,.65v2.34c0,.17,0,.35,.03,.52h-.2l-2.65-2.96v2.12c0,.45,.09,.6,.48,.6h.09v.15c-.22,0-.44-.02-.66-.02s-.47,.02-.7,.02v-.15h.07c.35,0,.46-.24,.46-.65v-2.17c0-.26-.21-.46-.46-.46h-.07v-.15c.2,0,.4,.02,.59,.02,.16,0,.3-.02,.46-.02l2.29,2.58h0Z"/><path id="q" class="cd" d="M37.58,22.52h-.21l-2.61-2.92v2.06c0,.45,.07,.58,.46,.58h.11v.2h-.03c-.22,0-.45-.02-.66-.02s-.47,.02-.7,.02h-.02v-.2h.09c.34,0,.44-.22,.44-.63v-2.17c0-.24-.2-.44-.44-.44h-.1v-.2h.02c.2,0,.4,.02,.59,.02,.15,0,.3-.02,.48-.01l2.26,2.55v-1.89c0-.41-.28-.46-.43-.46h-.14v-.2h.02c.24,0,.48,.02,.72,.02,.21,0,.42-.02,.63-.02h.02v.2h-.1c-.21,0-.43,.02-.44,.63v2.34c0,.17,0,.35,.03,.52v.03h-.02Zm-.2-.05h.17c-.02-.17-.03-.33-.03-.5v-2.34c0-.62,.26-.68,.48-.68h.05v-.11c-.2,0-.41,.02-.61,.02-.24,0-.47-.02-.7-.02v.11h.09c.25-.01,.46,.18,.47,.43,0,.03,0,.05,0,.08v1.95h-.02l-.02,.03-2.29-2.59c-.15,0-.3,.02-.46,.02-.19,0-.38-.02-.57-.02v.11h.05c.27,0,.49,.21,.49,.48h0v2.18c0,.41-.11,.67-.48,.68h-.05v.11c.22,0,.45-.02,.68-.02s.43,.02,.64,.02v-.11h-.07c-.41,0-.51-.18-.51-.63v-2.18l2.67,2.99h0Zm-.1-1.07h0l.02-.02-.02,.02Zm-.01-.01h0Z"/><path id="r" class="cd" d="M38.85,19.08c-.39,0-.4,.09-.48,.47h-.16c.02-.14,.05-.29,.06-.44,.02-.14,.03-.29,.03-.44h.12c.04,.15,.17,.15,.31,.15h2.66c.14,0,.27,0,.28-.16l.12,.02c-.02,.14-.04,.28-.06,.42s0,.28,0,.42l-.16,.06c-.01-.19-.04-.5-.38-.5h-.84v2.75c0,.4,.18,.44,.43,.44h.1v.15c-.2,0-.56-.02-.84-.02-.31,0-.67,.02-.87,.02v-.15h.1c.28,0,.43-.02,.43-.43v-2.75h-.85Z"/><path id="s" class="cd" d="M40.88,22.44c-.2,0-.56-.02-.84-.02-.31,0-.67,.02-.87,.02h-.02v-.2h.12c.28,0,.4-.01,.4-.41v-2.73h-.82v-.05h.87v2.77c0,.41-.17,.45-.45,.45h-.07v.11c.2,0,.55-.02,.85-.02,.27,0,.61,.02,.82,.02v-.11h-.08c-.25,0-.45-.06-.45-.47v-2.76h.87c.35,0,.39,.3,.4,.49l.11-.04c0-.13,0-.27,.01-.4s.03-.26,.05-.4h-.08c-.02,.14-.17,.14-.3,.14h-2.68c-.12,0-.25,0-.3-.15h-.09c0,.14-.01,.28-.03,.42-.02,.14-.04,.28-.06,.41h.11c.07-.36,.11-.48,.5-.47v.05c-.38,0-.37,.07-.46,.45v.02h-.2v-.03c.02-.14,.05-.29,.06-.44,.02-.14,.03-.29,.03-.43v-.02h.16v.02c.03,.13,.13,.13,.26,.13h2.68c.14,0,.25,0,.26-.14v-.02h.02l.15,.03v.02c-.02,.14-.04,.28-.06,.42s-.01,.28-.01,.42v.02h-.01l-.18,.07v-.03c-.01-.19-.03-.47-.36-.47h-.82v2.72c0,.39,.16,.42,.4,.42h.12v.2h-.02Z"/><path id="t" class="cd" d="M41.97,22.26h.07c.18,0,.38-.02,.38-.29v-2.7c0-.27-.2-.29-.38-.29h-.07v-.15c.31,0,.85,.02,1.28,.02s.97-.02,1.32-.02c0,.22,0,.56,.01,.79l-.16,.04c-.03-.33-.09-.6-.63-.6h-.72v1.35h.61c.31,0,.38-.17,.41-.45h.15c-.01,.2-.02,.4-.02,.6s0,.39,.02,.59l-.15,.03c-.03-.31-.05-.51-.4-.51h-.62v1.2c0,.33,.3,.33,.63,.33,.62,0,.89-.04,1.04-.63l.14,.04c-.07,.27-.13,.55-.17,.82-.33,0-.92-.02-1.39-.02s-1.08,.02-1.37,.02v-.15h0Z"/><path id="u" class="cd" d="M44.73,22.44c-.33,0-.92-.02-1.39-.02s-1.08,.02-1.37,.02h-.02v-.2h.09c.19,0,.36-.02,.36-.27v-2.7c0-.25-.17-.27-.36-.27h-.09v-.2h.02c.31,0,.85,.02,1.28,.02s.97-.02,1.32-.02h.02v.02c0,.08,0,.17,0,.27,0,.18,0,.37,.02,.52v.02h-.02l-.18,.05v-.03c-.03-.33-.08-.58-.6-.58h-.69v1.3h.59c.3,0,.35-.15,.39-.43v-.02h.2v.02c-.01,.2-.02,.4-.02,.6s0,.39,.02,.59v.02h-.02l-.18,.04v-.02c-.03-.31-.04-.49-.38-.49h-.6v1.18c0,.31,.27,.31,.61,.31,.62,0,.87-.03,1.02-.61v-.02h.03l.16,.04v.02c-.07,.27-.13,.55-.18,.82v.02l-.02,.02Zm-.02-.05h0c.04-.26,.1-.52,.17-.78l-.1-.03c-.15,.58-.45,.63-1.06,.62-.32,0-.65,0-.65-.36v-1.22h.64c.36,0,.4,.21,.42,.51l.11-.02c-.01-.19-.02-.38-.02-.57s0-.39,.02-.58h-.11c-.03,.27-.11,.46-.43,.45h-.64v-1.39h.74c.54,0,.62,.27,.65,.6l.11-.03c0-.14-.02-.33-.02-.5,0-.09,0-.17,0-.24-.35,0-.87,.02-1.3,.02s-.94-.02-1.26-.02v.11h.05c.18,0,.4,.03,.4,.32v2.7c0,.28-.22,.32-.4,.32h-.05v.11c.3,0,.9-.02,1.35-.02s1.03,.02,1.37,.02h0Z"/><path id="v" class="cd" d="M45.6,19.37c0-.38-.21-.39-.37-.39h-.09v-.15c.17,0,.48,.02,.8,.02s.56-.02,.83-.02c.65,0,1.23,.17,1.23,.91-.01,.43-.3,.79-.72,.91l.88,1.32c.1,.19,.29,.31,.5,.31v.15c-.17,0-.33-.02-.5-.02s-.32,.02-.48,.02c-.4-.53-.75-1.09-1.07-1.67h-.34v1.1c0,.4,.19,.41,.42,.41h.09v.15c-.29,0-.59-.02-.89-.02-.25,0-.49,.02-.75,.02v-.15h.09c.19,0,.37-.09,.37-.28v-2.62h0Zm.66,1.21h.25c.52,0,.79-.2,.79-.8,.03-.39-.26-.72-.64-.75-.04,0-.07,0-.11,0-.1,0-.2,0-.29,.02v1.53Z"/><path id="w" class="cd" d="M48.65,22.44c-.17,0-.34-.02-.51-.02s-.32,.02-.5,.01c-.39-.53-.75-1.08-1.07-1.66h-.3v1.08c0,.39,.16,.38,.4,.39h.11v.2h-.02c-.29,0-.59-.02-.89-.02-.25,0-.49,.02-.75,.02h-.02v-.2h.11c.19,0,.34-.08,.34-.26v-2.62c0-.37-.18-.36-.34-.37h-.11v-.2h.02c.17,0,.48,.02,.8,.02s.56-.02,.83-.02c.65,0,1.25,.18,1.25,.93-.01,.42-.29,.79-.7,.92l.86,1.3c.09,.18,.28,.3,.48,.3h.02v.2h-.03Zm-2.4-1.72h.36c.32,.58,.67,1.14,1.05,1.67,.16,0,.32-.02,.48-.02s.32,.02,.48,.02v-.11c-.21,0-.4-.13-.5-.32l-.9-1.34h.03c.4-.12,.69-.48,.7-.9,0-.71-.56-.88-1.2-.88-.27,0-.52,.02-.83,.02s-.61-.02-.78-.02v.11h.07c.16,0,.39,.03,.39,.41v2.62c0,.21-.19,.3-.39,.3h-.07v.11c.25,0,.48-.02,.72-.02,.29,0,.58,.02,.86,.02v-.11h-.07c-.23,0-.44-.03-.44-.44v-1.12h.03Zm0-.14h-.02v-1.58h.02c.1-.01,.2-.02,.3-.02,.4-.03,.75,.27,.78,.68,0,.03,0,.07,0,.1,0,.61-.3,.82-.82,.82h-.26Zm.25-.05h0c.51,0,.77-.18,.77-.78,.03-.38-.25-.7-.63-.73-.03,0-.07,0-.1,0-.09,0-.18,0-.27,.02v1.49h.23Z"/><path id="x" class="cd" d="M52.15,21.4h0v-1.94c.03-.23-.13-.45-.36-.48-.03,0-.06,0-.09,0h-.11v-.15c.24,0,.48,.02,.72,.02,.21,0,.42-.02,.63-.02v.15h-.08c-.22,0-.46,.04-.46,.65v2.34c0,.17,0,.35,.03,.52h-.2l-2.65-2.96v2.12c0,.45,.09,.6,.48,.6h.09v.15c-.22,0-.44-.02-.66-.02s-.47,.02-.7,.02v-.15h.07c.36,0,.46-.24,.46-.65v-2.17c0-.25-.2-.46-.46-.46h-.08v-.15c.19,0,.4,.02,.59,.02,.15,0,.3-.02,.46-.02l2.29,2.58h0Z"/><path id="y" class="cd" d="M52.45,22.52h-.21l-2.61-2.92v2.06c0,.45,.07,.58,.46,.58h.11v.2h-.02c-.22,0-.44-.02-.66-.02s-.47,.02-.7,.02h-.02v-.2h.09c.34,0,.44-.22,.44-.63v-2.17c0-.24-.2-.44-.44-.44h-.1v-.2h.02c.2,0,.4,.02,.59,.02,.15,0,.3-.02,.47-.01l2.26,2.55v-1.9c0-.41-.28-.46-.43-.46h-.14v-.2h.02c.24,0,.48,.02,.72,.02,.21,0,.42-.02,.63-.02h.02v.2h-.1c-.21,0-.43,.02-.44,.63v2.34c0,.17,0,.35,.03,.52v.02h-.02Zm-.2-.04h.17c-.02-.17-.03-.33-.03-.5v-2.34c0-.62,.26-.67,.48-.68h.05v-.11c-.2,0-.41,.02-.61,.02-.24,0-.47-.02-.7-.02v.11h.09c.25-.01,.46,.18,.47,.43,0,.03,0,.05,0,.08v1.95h-.02l-.02,.03-2.29-2.59c-.15,0-.3,.02-.46,.02-.19,0-.38-.02-.57-.02v.11h.05c.27,0,.49,.21,.49,.48h0v2.17c0,.41-.12,.68-.49,.68h-.05v.11c.22,0,.45-.02,.68-.02s.43,.02,.64,.02v-.11h-.06c-.41,0-.51-.18-.51-.63v-2.18l2.68,2.99h0Zm-.1-1.07h0l.02-.02-.02,.02Zm-.01-.01h0Z"/><path id="a`" class="cd" d="M53.78,21.68c-.05,.13-.09,.26-.11,.4,0,.15,.22,.18,.39,.18h.06v.15c-.21-.01-.42-.02-.62-.02-.19,0-.37,0-.56,.02v-.15h.03c.21,0,.39-.14,.45-.33l.82-2.36c.08-.21,.14-.42,.19-.64,.16-.06,.32-.13,.47-.22,.01,0,.03,0,.04-.01,.01,0,.03,0,.04,.02,.02,.04,.03,.09,.05,.13l.95,2.69c.06,.18,.12,.37,.19,.52,.05,.14,.19,.22,.34,.2h.03v.15c-.23-.01-.46-.02-.71-.02s-.51,0-.77,.02v-.15h.06c.12,0,.32-.02,.32-.15-.02-.13-.05-.25-.1-.37l-.2-.6h-1.17l-.16,.54h0Zm.75-2.28h-.01l-.48,1.46h.96l-.47-1.46Z"/><path id="aa" class="cd" d="M56.53,22.44c-.23-.01-.46-.02-.71-.02s-.51,.01-.77,.02h-.02v-.2h.08c.12,0,.3-.03,.3-.13-.02-.12-.05-.25-.1-.36l-.2-.58h-1.14l-.16,.52c-.05,.13-.09,.26-.11,.4,0,.13,.19,.16,.36,.16h.08v.2h-.02c-.21-.01-.42-.02-.62-.02-.19,0-.37,.01-.56,.02h-.02v-.2h.05c.2,0,.37-.13,.43-.32l.82-2.36c.08-.21,.15-.43,.2-.65,.16-.06,.32-.13,.47-.22,.02,0,.03-.01,.05-.01,.02,0,.04,.01,.06,.03l.05,.13,.95,2.69c.06,.18,.12,.37,.19,.52,.05,.13,.18,.21,.32,.19h.05v.2h-.02Zm-1.46-.05h0c.26,0,.5-.02,.75-.02s.46,.01,.69,.02v-.11h0c-.16,.02-.3-.07-.36-.22-.07-.16-.13-.35-.19-.53l-.95-2.69s-.03-.09-.04-.12t0,0h0s-.02,0-.03,0c-.14,.09-.3,.16-.46,.21-.05,.22-.11,.43-.19,.64l-.82,2.36c-.06,.21-.25,.35-.47,.35h0v.11c.18,0,.35-.02,.53-.02,.2,0,.4,.01,.6,.02v-.11h-.03c-.17,0-.4-.02-.41-.2,.02-.14,.06-.28,.11-.41h0l.17-.55h1.2l.21,.61c.05,.12,.08,.25,.1,.38,0,.16-.22,.17-.34,.17h-.03v.11h0Zm-1.05-1.52h0l.49-1.5h.03v.02h0v-.02h.02l.49,1.5h-1.03Zm.06-.05h.9l-.45-1.38-.45,1.38Zm.44-1.43h0Z"/><path id="ab" class="cd" d="M56.75,19.08c-.39,0-.4,.09-.48,.47h-.16c.02-.14,.05-.29,.06-.44,.02-.14,.03-.29,.03-.44h.12c.04,.15,.17,.15,.31,.15h2.66c.14,0,.27,0,.28-.16l.12,.02c-.02,.14-.04,.28-.06,.42s-.01,.28-.01,.42l-.15,.06c-.01-.19-.04-.5-.38-.5h-.84v2.75c0,.4,.18,.44,.43,.44h.1v.15c-.2,0-.56-.02-.84-.02-.31,0-.67,.02-.87,.02v-.15h.1c.28,0,.43-.02,.43-.43v-2.75h-.85Z"/><path id="ac" class="cd" d="M58.78,22.44c-.2,0-.56-.02-.84-.02-.31,0-.67,.02-.87,.02h-.02v-.2h.12c.28,0,.4-.01,.41-.41v-2.73h-.82v-.05h.87v2.77c0,.41-.17,.45-.45,.45h-.08v.11c.2,0,.55-.02,.85-.02,.27,0,.61,.02,.82,.02v-.11h-.08c-.25,0-.45-.06-.45-.47v-2.76h.87c.35,0,.39,.3,.4,.49l.11-.04c0-.13,0-.27,.01-.4s.03-.27,.05-.4h-.08c-.02,.14-.17,.14-.3,.14h-2.68c-.12,0-.25,0-.3-.15h-.08c0,.14-.01,.28-.03,.42-.01,.14-.04,.28-.06,.41h.11c.07-.36,.11-.48,.5-.47v.05c-.38,0-.37,.07-.46,.45v.02h-.2v-.03c.02-.14,.05-.29,.06-.44,.02-.14,.03-.29,.03-.43v-.02h.16v.02c.04,.13,.13,.13,.26,.13h2.68c.14,0,.25,0,.26-.14v-.02h.02l.15,.03v.02c-.02,.14-.04,.28-.06,.42s-.01,.28-.01,.42v.02h-.02l-.18,.07v-.03c-.01-.19-.03-.47-.36-.47h-.82v2.72c0,.39,.16,.42,.4,.42h.12v.2h-.01Z"/><path id="ad" class="cd" d="M59.89,22.26h.07c.19,0,.38-.02,.38-.29v-2.7c0-.27-.19-.29-.38-.29h-.07v-.15c.2,0,.51,.02,.76,.02s.57-.02,.81-.02v.15h-.07c-.19,0-.38,.02-.38,.29v2.7c0,.27,.2,.29,.38,.29h.07v.15c-.25,0-.56-.02-.81-.02s-.56,.02-.76,.02v-.15Z"/><path id="ae" class="cd" d="M61.46,22.44c-.25,0-.56-.02-.81-.02s-.56,.02-.76,.02h-.02v-.2h.09c.19,0,.36-.02,.36-.27v-2.7c0-.25-.17-.27-.36-.27h-.09v-.2h.02c.2,0,.51,.02,.76,.02s.57-.02,.81-.02h.02v.2h-.09c-.19,0-.36,.02-.36,.27v2.7c0,.25,.17,.27,.36,.27h.09v.2h-.02Zm-.02-.05h0v-.11h-.05c-.19,0-.4-.03-.4-.32v-2.7c0-.29,.22-.32,.4-.32h.05v-.11c-.24,0-.54,.02-.79,.02s-.54-.02-.74-.02v.11h.05c.18,0,.4,.03,.4,.32v2.7c0,.28-.22,.32-.4,.32h-.05v.11c.2,0,.49-.02,.73-.02s.55,.02,.79,.02h0Z"/><path id="af" class="cd" d="M63.52,18.74c.99-.09,1.87,.64,1.97,1.63,0,.05,0,.1,0,.14,.05,1.04-.76,1.93-1.8,1.97-.05,0-.1,0-.14,0-1,.06-1.86-.71-1.92-1.71,0-.05,0-.09,0-.14-.02-1.03,.81-1.88,1.85-1.9,.02,0,.04,0,.05,0h0Zm.08,3.52h0c1,0,1.17-.88,1.17-1.63s-.41-1.66-1.26-1.66c-.9,0-1.17,.8-1.17,1.49,0,.92,.42,1.8,1.26,1.8h0Z"/><path id="ag" class="cd" d="M61.6,20.64c-.01-1.05,.83-1.91,1.88-1.92,.02,0,.03,0,.05,0v.04c-1.02-.01-1.86,.8-1.88,1.83,0,.02,0,.03,0,.05-.02,.99,.78,1.81,1.77,1.83,.05,0,.09,0,.14,0,1.03,.03,1.89-.78,1.93-1.81,0-.05,0-.1,0-.14-.01-.99-.82-1.78-1.81-1.76-.05,0-.1,0-.14,0v-.04c1.01-.09,1.9,.65,1.99,1.65,0,.05,0,.1,0,.15,.05,1.06-.77,1.95-1.83,2-.05,0-.1,0-.14,0-1.02,.06-1.89-.72-1.95-1.74,0-.04,0-.09,0-.13h0Zm.72-.19h0c0-.69,.27-1.52,1.19-1.52s1.28,.93,1.28,1.69-.18,1.65-1.2,1.65v-.04c.98,0,1.15-.86,1.15-1.61s-.4-1.64-1.24-1.64c-.88,0-1.15,.79-1.15,1.47,0,.92,.42,1.78,1.23,1.78v.04c-.85,0-1.28-.9-1.28-1.83h0Z"/><path id="ah" class="cd" d="M68.96,21.4h.01v-1.94c.03-.23-.13-.45-.36-.48-.03,0-.06,0-.09,0h-.11v-.15c.24,0,.48,.02,.72,.02,.21,0,.42-.02,.63-.02v.15h-.08c-.22,0-.46,.04-.46,.65v2.34c0,.17,0,.35,.03,.52h-.2l-2.65-2.96v2.12c0,.45,.09,.6,.48,.6h.09v.15c-.22,0-.44-.02-.66-.02s-.47,.02-.7,.02v-.15h.07c.36,0,.46-.24,.46-.65v-2.17c0-.25-.2-.46-.46-.46h-.08v-.15c.2,0,.4,.02,.59,.02,.16,0,.3-.02,.46-.02l2.29,2.58h0Z"/><path id="ai" class="cd" d="M69.26,22.52h-.21l-2.61-2.92v2.06c0,.45,.07,.58,.46,.58h.11v.2h-.02c-.22,0-.44-.02-.66-.02s-.47,.02-.7,.02h-.02v-.2h.09c.34,0,.44-.22,.44-.63v-2.17c0-.24-.2-.44-.44-.44h-.1v-.2h.02c.2,0,.4,.02,.59,.02,.15,0,.3-.02,.48-.01l2.26,2.55v-1.89c0-.41-.28-.46-.43-.46h-.14v-.2h.02c.24,0,.48,.02,.72,.02,.21,0,.42-.02,.64-.02h.02v.2h-.1c-.21,0-.43,.02-.44,.63v2.34c0,.17,0,.35,.03,.52v.02h-.02Zm-.2-.05h.17c-.02-.17-.03-.33-.03-.5v-2.34c0-.62,.26-.67,.48-.68h.06v-.11c-.2,0-.41,.02-.61,.02-.23,0-.46-.02-.7-.02v.11h.09c.25-.01,.46,.18,.47,.43,0,.03,0,.05,0,.08v1.95h-.02l-.02,.03-2.29-2.59c-.15,0-.3,.02-.46,.02-.19,0-.38-.02-.57-.02v.11h.05c.27,0,.49,.21,.49,.48h0v2.17c0,.41-.11,.67-.48,.68h-.05v.11c.22,0,.45-.02,.68-.02s.43,.02,.64,.02v-.11h-.07c-.4,0-.51-.18-.51-.63v-2.18l2.68,2.99h0Zm-.1-1.07h0l.02-.02-.02,.02Zm-.01-.01h0Z"/><path id="aj" class="cd" d="M70.59,21.68c-.05,.13-.09,.26-.11,.4,0,.15,.22,.18,.39,.18h.06v.15c-.21-.01-.42-.02-.62-.02-.19,0-.37,0-.56,.02v-.15h.03c.21,0,.39-.14,.45-.33l.82-2.36c.08-.21,.14-.42,.19-.64,.16-.06,.32-.13,.47-.22,.01,0,.03-.01,.04-.01,.01,0,.03,0,.04,.02,.02,.04,.03,.09,.05,.13l.95,2.69c.06,.18,.12,.37,.19,.52,.05,.14,.19,.22,.34,.2h.03v.15c-.23-.01-.46-.02-.71-.02s-.51,0-.77,.02v-.15h.06c.12,0,.32-.02,.32-.15-.02-.13-.05-.25-.1-.37l-.2-.6h-1.17l-.17,.54h0Zm.75-2.28h-.01l-.48,1.46h.96l-.47-1.46Z"/><path id="ak" class="cd" d="M73.34,22.44c-.23,0-.46-.02-.71-.02s-.51,.01-.77,.02h-.02v-.2h.08c.12,0,.3-.03,.3-.13-.02-.12-.05-.25-.1-.36l-.2-.58h-1.14l-.16,.52c-.05,.13-.09,.26-.11,.4,0,.13,.19,.16,.36,.16h.08v.2h-.02c-.21,0-.42-.02-.62-.02-.19,0-.37,.01-.56,.02h-.02v-.2h.05c.2,0,.37-.13,.43-.32l.82-2.36c.08-.21,.14-.43,.2-.65,.16-.06,.32-.13,.47-.22,.02,0,.03-.01,.05-.01,.02,0,.05,0,.06,.03,.02,.04,.03,.09,.05,.13l.95,2.69c.06,.18,.12,.37,.19,.52,.05,.13,.18,.21,.32,.19h.05v.2h-.02Zm-1.46-.05h0c.26-.01,.51-.02,.75-.02s.46,.01,.69,.02v-.11h0c-.16,.02-.3-.07-.36-.22-.07-.16-.13-.35-.19-.53l-.95-2.69s-.03-.09-.04-.12t0,0h-.01s-.02,0-.03,0c-.14,.09-.3,.16-.46,.21-.05,.22-.11,.43-.19,.64l-.82,2.36c-.06,.21-.25,.35-.47,.35h0v.11c.18,0,.35-.02,.53-.02,.2,0,.4,.01,.6,.02v-.11h-.04c-.17,0-.4-.02-.41-.2,.02-.14,.06-.28,.11-.41h0l.17-.55h1.2l.21,.61c.05,.12,.08,.25,.1,.38,0,.16-.22,.17-.34,.17h-.03v.11h0Zm-1.05-1.52h0l.49-1.5h.03v.02h0v-.02h.02l.49,1.5h-1.02Zm.06-.04h.9l-.45-1.38-.45,1.38h0Zm.44-1.43h0Z"/><path id="al" class="cd" d="M74.64,21.91c0,.21,.14,.27,.31,.29,.23,.02,.45,.01,.68-.01,.19-.02,.37-.12,.49-.28,.07-.11,.13-.24,.16-.37h.15c-.06,.29-.13,.58-.19,.88-.45,0-.91-.02-1.36-.02s-.91,.02-1.36,.02v-.15h.07c.19,0,.39-.02,.39-.35v-2.65c0-.27-.2-.29-.39-.29h-.07v-.15c.27,0,.54,.02,.81,.02s.52-.02,.78-.02v.15h-.13c-.2,0-.35,0-.35,.28v2.66h0Z"/><path id="am" class="cd" d="M76.24,22.44c-.45,0-.91-.02-1.36-.02s-.91,.02-1.36,.02h-.02v-.2h.09c.19,0,.36-.02,.36-.32v-2.65c0-.25-.18-.27-.36-.27h-.09v-.2h.02c.27,0,.54,.02,.81,.02s.52-.02,.78-.02h.02v.2h-.15c-.2,0-.32,0-.33,.26v2.66c0,.19,.13,.24,.29,.27,.09,0,.19,.01,.29,.01,.13,0,.26,0,.39-.02,.19-.02,.36-.12,.48-.27,.07-.11,.13-.23,.16-.36v-.02h.19v.03c-.06,.3-.13,.58-.19,.88v.02h-.02Zm-.02-.05h0c.06-.28,.13-.55,.18-.83h-.11c-.03,.13-.09,.25-.16,.36-.13,.16-.31,.26-.51,.29-.13,.01-.26,.02-.4,.02-.1,0-.2,0-.29-.01-.17-.02-.33-.09-.33-.31v-2.66c0-.29,.18-.3,.37-.3h.11v-.11c-.25,0-.5,.02-.76,.02s-.53-.02-.79-.02v.11h.05c.18,0,.41,.03,.41,.32v2.65c0,.33-.22,.37-.41,.37h-.05v.11c.44,0,.89-.02,1.34-.02s.9,.02,1.34,.02h0Z"/><path id="an" class="cd" d="M76.37,18.67c.3,0,.54,.24,.54,.54,0,.3-.24,.54-.54,.54-.3,0-.54-.24-.54-.54,0-.29,.23-.54,.52-.54,0,0,.01,0,.02,0Zm0,.98h0c.24,0,.45-.19,.45-.43,0-.24-.19-.45-.43-.45-.24,0-.45,.19-.45,.43h0c0,.25,.19,.44,.43,.45h0Zm-.27-.15h0v-.03c.07,0,.08,0,.08-.05v-.4c0-.06,0-.08-.08-.07v-.03h.28c.1,0,.18,.05,.18,.14,0,.08-.05,.14-.13,.16l.09,.12s.07,.09,.12,.13v.02h-.11c-.05,0-.09-.11-.19-.25h-.06v.18s.01,.03,.08,.04v.03h-.26Zm.18-.29h.06c.07,0,.1-.05,.1-.14,0-.05-.03-.11-.08-.12,0,0-.02,0-.02,0h-.06v.26Z"/><path id="ao" class="cd" d="M20.76,25.33c4.92,.02,9.41-4.01,9.41-8.92-.06-5.08-4.23-9.14-9.3-9.08-.04,0-.07,0-.11,0h-4.23c-4.9-.11-8.97,3.77-9.08,8.68,0,.13,0,.27,0,.4,.05,4.97,4.11,8.95,9.08,8.92h4.23Z"/><path id="ap" class="cc" d="M16.54,8.07c-4.55,0-8.24,3.69-8.24,8.24,0,4.55,3.69,8.24,8.24,8.24,4.55,0,8.24-3.69,8.24-8.24h0c0-4.55-3.69-8.24-8.24-8.24Zm-5.22,8.24h0c0-2.16,1.34-4.09,3.35-4.87v9.75c-2.02-.78-3.35-2.71-3.35-4.88Zm7.09,4.88h0V11.44c2.69,1.03,4.04,4.05,3.01,6.74-.53,1.39-1.62,2.48-3.01,3.01h0Z"/><path id="aq" class="cd" d="M33.05,11.2c0-.85-.44-.8-.87-.8v-.25c.37,.02,.75,.02,1.12,.02,.4,0,.94-.02,1.64-.02,2.45,0,3.78,1.64,3.78,3.31,0,.94-.55,3.29-3.9,3.29-.48,0-.93-.02-1.37-.02s-.84,0-1.27,.02v-.25c.57-.06,.84-.08,.87-.72v-4.59h0Zm.93,4.44h0c0,.73,.52,.81,.98,.81,2.04,0,2.72-1.54,2.72-2.95,.11-1.57-1.06-2.93-2.63-3.04-.11,0-.22,0-.33,0-.39,0-.57,.03-.74,.04v5.15h0Z"/><path id="ar" class="cd" d="M39.05,16.51h.18c.27,0,.45,0,.45-.31v-2.56c0-.42-.14-.47-.49-.66v-.15c.45-.13,.97-.31,1.01-.34,.05-.03,.11-.05,.17-.05,.05,0,.07,.06,.07,.13v3.63c0,.31,.21,.31,.47,.31h.16v.25c-.32,0-.65-.02-.99-.02s-.68,0-1.03,.02v-.25h0Zm1.01-5.54h0c-.26,0-.46-.21-.46-.46s.21-.46,.46-.46c.25,0,.46,.2,.46,.46,0,.26-.21,.47-.46,.47Z"/><path id="as" class="cd" d="M41.98,13.69c0-.35-.1-.44-.55-.62v-.18c.42-.13,.84-.28,1.25-.46,.03,0,.06,.02,.06,.1v.62c.45-.41,1.03-.66,1.64-.71,.8,0,1.09,.59,1.09,1.32v2.44c0,.31,.21,.31,.47,.31h.17v.25c-.33,0-.66-.02-1-.02s-.68,0-1.02,.02v-.25h.17c.27,0,.45,0,.45-.31v-2.45c0-.54-.33-.8-.87-.8-.4,.06-.77,.22-1.1,.46v2.8c0,.31,.21,.31,.47,.31h.17v.25c-.33,0-.66-.02-1-.02s-.68,0-1.02,.02v-.25h.17c.27,0,.45,0,.45-.31v-2.51h0Z"/><path id="at" class="cd" d="M46.82,14.14c-.02,.18-.02,.37,0,.55-.04,.83,.57,1.54,1.39,1.64,.49-.03,.96-.26,1.28-.63l.13,.13c-.37,.62-1.03,1.02-1.75,1.07-1.05-.05-1.86-.93-1.81-1.98,0-.03,0-.05,0-.08,0-1.86,1.25-2.4,1.91-2.4,.83-.06,1.54,.57,1.6,1.4,0,.03,0,.06,0,.09,0,.06,0,.11,0,.17l-.09,.06h-2.66Zm1.68-.3h0c.24,0,.26-.12,.26-.24,.04-.44-.29-.83-.73-.87-.03,0-.07,0-.1,0-.58,0-.97,.43-1.09,1.11h1.65Z"/><path id="au" class="cd" d="M49.8,16.51h.26c.26,0,.45,0,.45-.31v-2.66c0-.29-.35-.35-.49-.43v-.14c.69-.29,1.07-.54,1.16-.54,.06,0,.08,.03,.08,.12v.85h.02c.24-.37,.63-.98,1.21-.98,.28-.01,.53,.21,.54,.49h0c.01,.26-.18,.48-.43,.49h-.01c-.3,0-.3-.23-.62-.23-.39,.05-.69,.39-.69,.79v2.22c0,.31,.19,.31,.45,.31h.53v.25c-.52,0-.92-.02-1.32-.02s-.79,0-1.13,.02v-.25h0Z"/><path id="av" class="cd" d="M53.44,15.44c.05,.63,.56,1.13,1.19,1.15,.37,.05,.71-.2,.76-.56,0-.04,0-.07,0-.11,0-1.12-2.06-.76-2.06-2.28,.04-.72,.66-1.26,1.37-1.22,.03,0,.06,0,.09,0,.38,0,.74,.1,1.08,.27l.07,.96h-.22c-.02-.54-.47-.96-1-.94h-.03c-.36-.04-.69,.22-.73,.59v.04c0,1.11,2.2,.77,2.2,2.25,0,.62-.5,1.29-1.63,1.29-.41-.01-.8-.12-1.15-.32l-.1-1.09,.17-.05h0Z"/><path id="aw" class="cd" d="M64.7,11.86h-.24c-.13-.99-1.03-1.68-2.02-1.55h0c-1.49,0-2.69,1.22-2.69,2.71,0,.1,0,.19,.02,.29-.12,1.68,1.14,3.15,2.82,3.29,.95,0,1.76-.7,1.9-1.64l.22,.06-.22,1.38c-.66,.31-1.37,.48-2.09,.5-1.86,.14-3.47-1.25-3.61-3.11-.01-.15-.01-.3,0-.45,.08-1.91,1.68-3.39,3.59-3.33,.77,.04,1.52,.21,2.23,.5l.09,1.35h0Z"/><path id="ax" class="cd" d="M65.04,16.51h.18c.27,0,.45,0,.45-.31v-5.27c0-.62-.14-.63-.5-.74v-.15c.34-.11,.66-.24,.97-.41,.07-.04,.14-.07,.21-.1,.06,0,.08,.06,.08,.13v6.54c0,.31,.21,.31,.47,.31h.16v.25c-.32,0-.65-.02-.99-.02s-.68,0-1.03,.02v-.25h0Z"/><path id="ay" class="cd" d="M71.12,16.24c0,.17,.1,.18,.26,.18,.11,0,.26,0,.38,0v.2c-.46,.06-.92,.16-1.36,.29l-.05-.03v-.77c-.44,.47-1.04,.75-1.68,.79-.56,.01-1.03-.43-1.05-1,0-.04,0-.09,0-.13v-2.42c0-.25-.04-.48-.57-.53v-.18c.34,0,1.1-.07,1.22-.07,.1,0,.1,.07,.1,.27v2.44c0,.29,0,1.1,.82,1.1,.43-.07,.83-.27,1.15-.58v-2.55c0-.19-.45-.29-.79-.39v-.17c.85-.06,1.38-.13,1.48-.13,.08,0,.08,.07,.08,.17v3.49h0Z"/><path id="b`" class="cd" d="M73.01,13.11c.38-.38,.88-.62,1.41-.68,1.02,.04,1.81,.9,1.76,1.92,0,.02,0,.05,0,.07,.05,1.31-.96,2.41-2.26,2.48-.46,0-.91-.11-1.31-.33l-.28,.22-.2-.1c.09-.56,.13-1.12,.13-1.68v-4.08c0-.62-.14-.63-.5-.74v-.15c.34-.11,.66-.24,.97-.41,.07-.04,.14-.08,.21-.1,.06,0,.07,.06,.07,.13v3.45h0Zm0,2.57h0c.03,.53,.45,.94,.97,.97,1.01,0,1.44-1,1.44-1.84,.05-.92-.61-1.73-1.51-1.87-.34,.04-.66,.2-.9,.45v2.3h0Z"/><path id="ba" class="cd" d="M32.17,22.26h.07c.18,0,.38-.02,.38-.29v-2.7c0-.27-.2-.29-.38-.29h-.07v-.15c.2,0,.51,.02,.76,.02s.57-.02,.81-.02v.15h-.07c-.18,0-.38,.02-.38,.29v2.7c0,.27,.2,.29,.38,.29h.07v.15c-.25,0-.56-.02-.81-.02s-.56,.02-.76,.02v-.15h0Z"/><path id="bb" class="cd" d="M33.74,22.44c-.25,0-.56-.02-.81-.02s-.55,.02-.76,.02h-.02v-.2h.09c.19,0,.36-.02,.36-.27v-2.7c0-.25-.17-.27-.36-.27h-.09v-.2h.02c.2,0,.51,.02,.76,.02s.57-.02,.81-.02h.02v.2h-.1c-.19,0-.36,.02-.36,.27v2.7c0,.25,.17,.27,.36,.27h.09v.2h-.02Zm-.02-.04h0v-.11h-.05c-.18,0-.4-.03-.4-.32v-2.7c0-.29,.22-.32,.4-.32h.05v-.11c-.24,0-.54,.02-.79,.02s-.54-.02-.74-.02v.11h.05c.18,0,.4,.03,.4,.32v2.7c0,.29-.22,.32-.4,.32h-.05v.11c.2,0,.49-.02,.73-.02s.55,.02,.79,.02Z"/><path id="bc" class="cd" d="M37.28,21.4h.01v-1.94c.03-.23-.13-.45-.36-.48-.03,0-.06,0-.09,0h-.11v-.15c.24,0,.48,.02,.72,.02,.21,0,.42-.02,.63-.02v.15h-.08c-.22,0-.46,.04-.46,.65v2.34c0,.17,0,.35,.03,.52h-.2l-2.65-2.96v2.12c0,.45,.09,.6,.48,.6h.09v.15c-.22,0-.44-.02-.66-.02s-.47,.02-.7,.02v-.15h.07c.35,0,.46-.24,.46-.65v-2.17c0-.26-.21-.46-.46-.46h-.07v-.15c.2,0,.4,.02,.59,.02,.16,0,.3-.02,.46-.02l2.29,2.58h0Z"/><path id="bd" class="cd" d="M37.58,22.52h-.21l-2.61-2.92v2.06c0,.45,.07,.58,.46,.58h.11v.2h-.03c-.22,0-.45-.02-.66-.02s-.47,.02-.7,.02h-.02v-.2h.09c.34,0,.44-.22,.44-.63v-2.17c0-.24-.2-.44-.44-.44h-.1v-.2h.02c.2,0,.4,.02,.59,.02,.15,0,.3-.02,.48-.01l2.26,2.55v-1.89c0-.41-.28-.46-.43-.46h-.14v-.2h.02c.24,0,.48,.02,.72,.02,.21,0,.42-.02,.63-.02h.02v.2h-.1c-.21,0-.43,.02-.44,.63v2.34c0,.17,0,.35,.03,.52v.03h-.02Zm-.2-.05h.17c-.02-.17-.03-.33-.03-.5v-2.34c0-.62,.26-.68,.48-.68h.05v-.11c-.2,0-.41,.02-.61,.02-.24,0-.47-.02-.7-.02v.11h.09c.25-.01,.46,.18,.47,.43,0,.03,0,.05,0,.08v1.95h-.02l-.02,.03-2.29-2.59c-.15,0-.3,.02-.46,.02-.19,0-.38-.02-.57-.02v.11h.05c.27,0,.49,.21,.49,.48h0v2.18c0,.41-.11,.67-.48,.68h-.05v.11c.22,0,.45-.02,.68-.02s.43,.02,.64,.02v-.11h-.07c-.41,0-.51-.18-.51-.63v-2.18l2.67,2.99h0Zm-.1-1.07h0l.02-.02-.02,.02Zm-.01-.01h0Z"/><path id="be" class="cd" d="M38.85,19.08c-.39,0-.4,.09-.48,.47h-.16c.02-.14,.05-.29,.06-.44,.02-.14,.03-.29,.03-.44h.12c.04,.15,.17,.15,.31,.15h2.66c.14,0,.27,0,.28-.16l.12,.02c-.02,.14-.04,.28-.06,.42s0,.28,0,.42l-.16,.06c-.01-.19-.04-.5-.38-.5h-.84v2.75c0,.4,.18,.44,.43,.44h.1v.15c-.2,0-.56-.02-.84-.02-.31,0-.67,.02-.87,.02v-.15h.1c.28,0,.43-.02,.43-.43v-2.75h-.85Z"/><path id="bf" class="cd" d="M40.88,22.44c-.2,0-.56-.02-.84-.02-.31,0-.67,.02-.87,.02h-.02v-.2h.12c.28,0,.4-.01,.4-.41v-2.73h-.82v-.05h.87v2.77c0,.41-.17,.45-.45,.45h-.07v.11c.2,0,.55-.02,.85-.02,.27,0,.61,.02,.82,.02v-.11h-.08c-.25,0-.45-.06-.45-.47v-2.76h.87c.35,0,.39,.3,.4,.49l.11-.04c0-.13,0-.27,.01-.4s.03-.26,.05-.4h-.08c-.02,.14-.17,.14-.3,.14h-2.68c-.12,0-.25,0-.3-.15h-.09c0,.14-.01,.28-.03,.42-.02,.14-.04,.28-.06,.41h.11c.07-.36,.11-.48,.5-.47v.05c-.38,0-.37,.07-.46,.45v.02h-.2v-.03c.02-.14,.05-.29,.06-.44,.02-.14,.03-.29,.03-.43v-.02h.16v.02c.03,.13,.13,.13,.26,.13h2.68c.14,0,.25,0,.26-.14v-.02h.02l.15,.03v.02c-.02,.14-.04,.28-.06,.42s-.01,.28-.01,.42v.02h-.01l-.18,.07v-.03c-.01-.19-.03-.47-.36-.47h-.82v2.72c0,.39,.16,.42,.4,.42h.12v.2h-.02Z"/><path id="bg" class="cd" d="M41.97,22.26h.07c.18,0,.38-.02,.38-.29v-2.7c0-.27-.2-.29-.38-.29h-.07v-.15c.31,0,.85,.02,1.28,.02s.97-.02,1.32-.02c0,.22,0,.56,.01,.79l-.16,.04c-.03-.33-.09-.6-.63-.6h-.72v1.35h.61c.31,0,.38-.17,.41-.45h.15c-.01,.2-.02,.4-.02,.6s0,.39,.02,.59l-.15,.03c-.03-.31-.05-.51-.4-.51h-.62v1.2c0,.33,.3,.33,.63,.33,.62,0,.89-.04,1.04-.63l.14,.04c-.07,.27-.13,.55-.17,.82-.33,0-.92-.02-1.39-.02s-1.08,.02-1.37,.02v-.15h0Z"/><path id="bh" class="cd" d="M44.73,22.44c-.33,0-.92-.02-1.39-.02s-1.08,.02-1.37,.02h-.02v-.2h.09c.19,0,.36-.02,.36-.27v-2.7c0-.25-.17-.27-.36-.27h-.09v-.2h.02c.31,0,.85,.02,1.28,.02s.97-.02,1.32-.02h.02v.02c0,.08,0,.17,0,.27,0,.18,0,.37,.02,.52v.02h-.02l-.18,.05v-.03c-.03-.33-.08-.58-.6-.58h-.69v1.3h.59c.3,0,.35-.15,.39-.43v-.02h.2v.02c-.01,.2-.02,.4-.02,.6s0,.39,.02,.59v.02h-.02l-.18,.04v-.02c-.03-.31-.04-.49-.38-.49h-.6v1.18c0,.31,.27,.31,.61,.31,.62,0,.87-.03,1.02-.61v-.02h.03l.16,.04v.02c-.07,.27-.13,.55-.18,.82v.02l-.02,.02Zm-.02-.05h0c.04-.26,.1-.52,.17-.78l-.1-.03c-.15,.58-.45,.63-1.06,.62-.32,0-.65,0-.65-.36v-1.22h.64c.36,0,.4,.21,.42,.51l.11-.02c-.01-.19-.02-.38-.02-.57s0-.39,.02-.58h-.11c-.03,.27-.11,.46-.43,.45h-.64v-1.39h.74c.54,0,.62,.27,.65,.6l.11-.03c0-.14-.02-.33-.02-.5,0-.09,0-.17,0-.24-.35,0-.87,.02-1.3,.02s-.94-.02-1.26-.02v.11h.05c.18,0,.4,.03,.4,.32v2.7c0,.28-.22,.32-.4,.32h-.05v.11c.3,0,.9-.02,1.35-.02s1.03,.02,1.37,.02h0Z"/><path id="bi" class="cd" d="M45.6,19.37c0-.38-.21-.39-.37-.39h-.09v-.15c.17,0,.48,.02,.8,.02s.56-.02,.83-.02c.65,0,1.23,.17,1.23,.91-.01,.43-.3,.79-.72,.91l.88,1.32c.1,.19,.29,.31,.5,.31v.15c-.17,0-.33-.02-.5-.02s-.32,.02-.48,.02c-.4-.53-.75-1.09-1.07-1.67h-.34v1.1c0,.4,.19,.41,.42,.41h.09v.15c-.29,0-.59-.02-.89-.02-.25,0-.49,.02-.75,.02v-.15h.09c.19,0,.37-.09,.37-.28v-2.62h0Zm.66,1.21h.25c.52,0,.79-.2,.79-.8,.03-.39-.26-.72-.64-.75-.04,0-.07,0-.11,0-.1,0-.2,0-.29,.02v1.53Z"/><path id="bj" class="cd" d="M48.65,22.44c-.17,0-.34-.02-.51-.02s-.32,.02-.5,.01c-.39-.53-.75-1.08-1.07-1.66h-.3v1.08c0,.39,.16,.38,.4,.39h.11v.2h-.02c-.29,0-.59-.02-.89-.02-.25,0-.49,.02-.75,.02h-.02v-.2h.11c.19,0,.34-.08,.34-.26v-2.62c0-.37-.18-.36-.34-.37h-.11v-.2h.02c.17,0,.48,.02,.8,.02s.56-.02,.83-.02c.65,0,1.25,.18,1.25,.93-.01,.42-.29,.79-.7,.92l.86,1.3c.09,.18,.28,.3,.48,.3h.02v.2h-.03Zm-2.4-1.72h.36c.32,.58,.67,1.14,1.05,1.67,.16,0,.32-.02,.48-.02s.32,.02,.48,.02v-.11c-.21,0-.4-.13-.5-.32l-.9-1.34h.03c.4-.12,.69-.48,.7-.9,0-.71-.56-.88-1.2-.88-.27,0-.52,.02-.83,.02s-.61-.02-.78-.02v.11h.07c.16,0,.39,.03,.39,.41v2.62c0,.21-.19,.3-.39,.3h-.07v.11c.25,0,.48-.02,.72-.02,.29,0,.58,.02,.86,.02v-.11h-.07c-.23,0-.44-.03-.44-.44v-1.12h.03Zm0-.14h-.02v-1.58h.02c.1-.01,.2-.02,.3-.02,.4-.03,.75,.27,.78,.68,0,.03,0,.07,0,.1,0,.61-.3,.82-.82,.82h-.26Zm.25-.05h0c.51,0,.77-.18,.77-.78,.03-.38-.25-.7-.63-.73-.03,0-.07,0-.1,0-.09,0-.18,0-.27,.02v1.49h.23Z"/><path id="bk" class="cd" d="M52.15,21.4h0v-1.94c.03-.23-.13-.45-.36-.48-.03,0-.06,0-.09,0h-.11v-.15c.24,0,.48,.02,.72,.02,.21,0,.42-.02,.63-.02v.15h-.08c-.22,0-.46,.04-.46,.65v2.34c0,.17,0,.35,.03,.52h-.2l-2.65-2.96v2.12c0,.45,.09,.6,.48,.6h.09v.15c-.22,0-.44-.02-.66-.02s-.47,.02-.7,.02v-.15h.07c.36,0,.46-.24,.46-.65v-2.17c0-.25-.2-.46-.46-.46h-.08v-.15c.19,0,.4,.02,.59,.02,.15,0,.3-.02,.46-.02l2.29,2.58h0Z"/><path id="bl" class="cd" d="M52.45,22.52h-.21l-2.61-2.92v2.06c0,.45,.07,.58,.46,.58h.11v.2h-.02c-.22,0-.44-.02-.66-.02s-.47,.02-.7,.02h-.02v-.2h.09c.34,0,.44-.22,.44-.63v-2.17c0-.24-.2-.44-.44-.44h-.1v-.2h.02c.2,0,.4,.02,.59,.02,.15,0,.3-.02,.47-.01l2.26,2.55v-1.9c0-.41-.28-.46-.43-.46h-.14v-.2h.02c.24,0,.48,.02,.72,.02,.21,0,.42-.02,.63-.02h.02v.2h-.1c-.21,0-.43,.02-.44,.63v2.34c0,.17,0,.35,.03,.52v.02h-.02Zm-.2-.04h.17c-.02-.17-.03-.33-.03-.5v-2.34c0-.62,.26-.67,.48-.68h.05v-.11c-.2,0-.41,.02-.61,.02-.24,0-.47-.02-.7-.02v.11h.09c.25-.01,.46,.18,.47,.43,0,.03,0,.05,0,.08v1.95h-.02l-.02,.03-2.29-2.59c-.15,0-.3,.02-.46,.02-.19,0-.38-.02-.57-.02v.11h.05c.27,0,.49,.21,.49,.48h0v2.17c0,.41-.12,.68-.49,.68h-.05v.11c.22,0,.45-.02,.68-.02s.43,.02,.64,.02v-.11h-.06c-.41,0-.51-.18-.51-.63v-2.18l2.68,2.99h0Zm-.1-1.07h0l.02-.02-.02,.02Zm-.01-.01h0Z"/><path id="bm" class="cd" d="M53.78,21.68c-.05,.13-.09,.26-.11,.4,0,.15,.22,.18,.39,.18h.06v.15c-.21-.01-.42-.02-.62-.02-.19,0-.37,0-.56,.02v-.15h.03c.21,0,.39-.14,.45-.33l.82-2.36c.08-.21,.14-.42,.19-.64,.16-.06,.32-.13,.47-.22,.01,0,.03,0,.04-.01,.01,0,.03,0,.04,.02,.02,.04,.03,.09,.05,.13l.95,2.69c.06,.18,.12,.37,.19,.52,.05,.14,.19,.22,.34,.2h.03v.15c-.23-.01-.46-.02-.71-.02s-.51,0-.77,.02v-.15h.06c.12,0,.32-.02,.32-.15-.02-.13-.05-.25-.1-.37l-.2-.6h-1.17l-.16,.54h0Zm.75-2.28h-.01l-.48,1.46h.96l-.47-1.46Z"/><path id="bn" class="cd" d="M56.53,22.44c-.23-.01-.46-.02-.71-.02s-.51,.01-.77,.02h-.02v-.2h.08c.12,0,.3-.03,.3-.13-.02-.12-.05-.25-.1-.36l-.2-.58h-1.14l-.16,.52c-.05,.13-.09,.26-.11,.4,0,.13,.19,.16,.36,.16h.08v.2h-.02c-.21-.01-.42-.02-.62-.02-.19,0-.37,.01-.56,.02h-.02v-.2h.05c.2,0,.37-.13,.43-.32l.82-2.36c.08-.21,.15-.43,.2-.65,.16-.06,.32-.13,.47-.22,.02,0,.03-.01,.05-.01,.02,0,.04,.01,.06,.03l.05,.13,.95,2.69c.06,.18,.12,.37,.19,.52,.05,.13,.18,.21,.32,.19h.05v.2h-.02Zm-1.46-.05h0c.26,0,.5-.02,.75-.02s.46,.01,.69,.02v-.11h0c-.16,.02-.3-.07-.36-.22-.07-.16-.13-.35-.19-.53l-.95-2.69s-.03-.09-.04-.12t0,0h0s-.02,0-.03,0c-.14,.09-.3,.16-.46,.21-.05,.22-.11,.43-.19,.64l-.82,2.36c-.06,.21-.25,.35-.47,.35h0v.11c.18,0,.35-.02,.53-.02,.2,0,.4,.01,.6,.02v-.11h-.03c-.17,0-.4-.02-.41-.2,.02-.14,.06-.28,.11-.41h0l.17-.55h1.2l.21,.61c.05,.12,.08,.25,.1,.38,0,.16-.22,.17-.34,.17h-.03v.11h0Zm-1.05-1.52h0l.49-1.5h.03v.02h0v-.02h.02l.49,1.5h-1.03Zm.06-.05h.9l-.45-1.38-.45,1.38Zm.44-1.43h0Z"/><path id="bo" class="cd" d="M56.75,19.08c-.39,0-.4,.09-.48,.47h-.16c.02-.14,.05-.29,.06-.44,.02-.14,.03-.29,.03-.44h.12c.04,.15,.17,.15,.31,.15h2.66c.14,0,.27,0,.28-.16l.12,.02c-.02,.14-.04,.28-.06,.42s-.01,.28-.01,.42l-.15,.06c-.01-.19-.04-.5-.38-.5h-.84v2.75c0,.4,.18,.44,.43,.44h.1v.15c-.2,0-.56-.02-.84-.02-.31,0-.67,.02-.87,.02v-.15h.1c.28,0,.43-.02,.43-.43v-2.75h-.85Z"/><path id="bp" class="cd" d="M58.78,22.44c-.2,0-.56-.02-.84-.02-.31,0-.67,.02-.87,.02h-.02v-.2h.12c.28,0,.4-.01,.41-.41v-2.73h-.82v-.05h.87v2.77c0,.41-.17,.45-.45,.45h-.08v.11c.2,0,.55-.02,.85-.02,.27,0,.61,.02,.82,.02v-.11h-.08c-.25,0-.45-.06-.45-.47v-2.76h.87c.35,0,.39,.3,.4,.49l.11-.04c0-.13,0-.27,.01-.4s.03-.27,.05-.4h-.08c-.02,.14-.17,.14-.3,.14h-2.68c-.12,0-.25,0-.3-.15h-.08c0,.14-.01,.28-.03,.42-.01,.14-.04,.28-.06,.41h.11c.07-.36,.11-.48,.5-.47v.05c-.38,0-.37,.07-.46,.45v.02h-.2v-.03c.02-.14,.05-.29,.06-.44,.02-.14,.03-.29,.03-.43v-.02h.16v.02c.04,.13,.13,.13,.26,.13h2.68c.14,0,.25,0,.26-.14v-.02h.02l.15,.03v.02c-.02,.14-.04,.28-.06,.42s-.01,.28-.01,.42v.02h-.02l-.18,.07v-.03c-.01-.19-.03-.47-.36-.47h-.82v2.72c0,.39,.16,.42,.4,.42h.12v.2h-.01Z"/><path id="bq" class="cd" d="M59.89,22.26h.07c.19,0,.38-.02,.38-.29v-2.7c0-.27-.19-.29-.38-.29h-.07v-.15c.2,0,.51,.02,.76,.02s.57-.02,.81-.02v.15h-.07c-.19,0-.38,.02-.38,.29v2.7c0,.27,.2,.29,.38,.29h.07v.15c-.25,0-.56-.02-.81-.02s-.56,.02-.76,.02v-.15Z"/><path id="br" class="cd" d="M61.46,22.44c-.25,0-.56-.02-.81-.02s-.56,.02-.76,.02h-.02v-.2h.09c.19,0,.36-.02,.36-.27v-2.7c0-.25-.17-.27-.36-.27h-.09v-.2h.02c.2,0,.51,.02,.76,.02s.57-.02,.81-.02h.02v.2h-.09c-.19,0-.36,.02-.36,.27v2.7c0,.25,.17,.27,.36,.27h.09v.2h-.02Zm-.02-.05h0v-.11h-.05c-.19,0-.4-.03-.4-.32v-2.7c0-.29,.22-.32,.4-.32h.05v-.11c-.24,0-.54,.02-.79,.02s-.54-.02-.74-.02v.11h.05c.18,0,.4,.03,.4,.32v2.7c0,.28-.22,.32-.4,.32h-.05v.11c.2,0,.49-.02,.73-.02s.55,.02,.79,.02h0Z"/><path id="bs" class="cd" d="M63.52,18.74c.99-.09,1.87,.64,1.97,1.63,0,.05,0,.1,0,.14,.05,1.04-.76,1.93-1.8,1.97-.05,0-.1,0-.14,0-1,.06-1.86-.71-1.92-1.71,0-.05,0-.09,0-.14-.02-1.03,.81-1.88,1.85-1.9,.02,0,.04,0,.05,0h0Zm.08,3.52h0c1,0,1.17-.88,1.17-1.63s-.41-1.66-1.26-1.66c-.9,0-1.17,.8-1.17,1.49,0,.92,.42,1.8,1.26,1.8h0Z"/><path id="bt" class="cd" d="M61.6,20.64c-.01-1.05,.83-1.91,1.88-1.92,.02,0,.03,0,.05,0v.04c-1.02-.01-1.86,.8-1.88,1.83,0,.02,0,.03,0,.05-.02,.99,.78,1.81,1.77,1.83,.05,0,.09,0,.14,0,1.03,.03,1.89-.78,1.93-1.81,0-.05,0-.1,0-.14-.01-.99-.82-1.78-1.81-1.76-.05,0-.1,0-.14,0v-.04c1.01-.09,1.9,.65,1.99,1.65,0,.05,0,.1,0,.15,.05,1.06-.77,1.95-1.83,2-.05,0-.1,0-.14,0-1.02,.06-1.89-.72-1.95-1.74,0-.04,0-.09,0-.13h0Zm.72-.19h0c0-.69,.27-1.52,1.19-1.52s1.28,.93,1.28,1.69-.18,1.65-1.2,1.65v-.04c.98,0,1.15-.86,1.15-1.61s-.4-1.64-1.24-1.64c-.88,0-1.15,.79-1.15,1.47,0,.92,.42,1.78,1.23,1.78v.04c-.85,0-1.28-.9-1.28-1.83h0Z"/><path id="bu" class="cd" d="M68.96,21.4h.01v-1.94c.03-.23-.13-.45-.36-.48-.03,0-.06,0-.09,0h-.11v-.15c.24,0,.48,.02,.72,.02,.21,0,.42-.02,.63-.02v.15h-.08c-.22,0-.46,.04-.46,.65v2.34c0,.17,0,.35,.03,.52h-.2l-2.65-2.96v2.12c0,.45,.09,.6,.48,.6h.09v.15c-.22,0-.44-.02-.66-.02s-.47,.02-.7,.02v-.15h.07c.36,0,.46-.24,.46-.65v-2.17c0-.25-.2-.46-.46-.46h-.08v-.15c.2,0,.4,.02,.59,.02,.16,0,.3-.02,.46-.02l2.29,2.58h0Z"/><path id="bv" class="cd" d="M69.26,22.52h-.21l-2.61-2.92v2.06c0,.45,.07,.58,.46,.58h.11v.2h-.02c-.22,0-.44-.02-.66-.02s-.47,.02-.7,.02h-.02v-.2h.09c.34,0,.44-.22,.44-.63v-2.17c0-.24-.2-.44-.44-.44h-.1v-.2h.02c.2,0,.4,.02,.59,.02,.15,0,.3-.02,.48-.01l2.26,2.55v-1.89c0-.41-.28-.46-.43-.46h-.14v-.2h.02c.24,0,.48,.02,.72,.02,.21,0,.42-.02,.64-.02h.02v.2h-.1c-.21,0-.43,.02-.44,.63v2.34c0,.17,0,.35,.03,.52v.02h-.02Zm-.2-.05h.17c-.02-.17-.03-.33-.03-.5v-2.34c0-.62,.26-.67,.48-.68h.06v-.11c-.2,0-.41,.02-.61,.02-.23,0-.46-.02-.7-.02v.11h.09c.25-.01,.46,.18,.47,.43,0,.03,0,.05,0,.08v1.95h-.02l-.02,.03-2.29-2.59c-.15,0-.3,.02-.46,.02-.19,0-.38-.02-.57-.02v.11h.05c.27,0,.49,.21,.49,.48h0v2.17c0,.41-.11,.67-.48,.68h-.05v.11c.22,0,.45-.02,.68-.02s.43,.02,.64,.02v-.11h-.07c-.4,0-.51-.18-.51-.63v-2.18l2.68,2.99h0Zm-.1-1.07h0l.02-.02-.02,.02Zm-.01-.01h0Z"/><path id="bw" class="cd" d="M70.59,21.68c-.05,.13-.09,.26-.11,.4,0,.15,.22,.18,.39,.18h.06v.15c-.21-.01-.42-.02-.62-.02-.19,0-.37,0-.56,.02v-.15h.03c.21,0,.39-.14,.45-.33l.82-2.36c.08-.21,.14-.42,.19-.64,.16-.06,.32-.13,.47-.22,.01,0,.03-.01,.04-.01,.01,0,.03,0,.04,.02,.02,.04,.03,.09,.05,.13l.95,2.69c.06,.18,.12,.37,.19,.52,.05,.14,.19,.22,.34,.2h.03v.15c-.23-.01-.46-.02-.71-.02s-.51,0-.77,.02v-.15h.06c.12,0,.32-.02,.32-.15-.02-.13-.05-.25-.1-.37l-.2-.6h-1.17l-.17,.54h0Zm.75-2.28h-.01l-.48,1.46h.96l-.47-1.46Z"/><path id="bx" class="cd" d="M73.34,22.44c-.23,0-.46-.02-.71-.02s-.51,.01-.77,.02h-.02v-.2h.08c.12,0,.3-.03,.3-.13-.02-.12-.05-.25-.1-.36l-.2-.58h-1.14l-.16,.52c-.05,.13-.09,.26-.11,.4,0,.13,.19,.16,.36,.16h.08v.2h-.02c-.21,0-.42-.02-.62-.02-.19,0-.37,.01-.56,.02h-.02v-.2h.05c.2,0,.37-.13,.43-.32l.82-2.36c.08-.21,.14-.43,.2-.65,.16-.06,.32-.13,.47-.22,.02,0,.03-.01,.05-.01,.02,0,.05,0,.06,.03,.02,.04,.03,.09,.05,.13l.95,2.69c.06,.18,.12,.37,.19,.52,.05,.13,.18,.21,.32,.19h.05v.2h-.02Zm-1.46-.05h0c.26-.01,.51-.02,.75-.02s.46,.01,.69,.02v-.11h0c-.16,.02-.3-.07-.36-.22-.07-.16-.13-.35-.19-.53l-.95-2.69s-.03-.09-.04-.12t0,0h-.01s-.02,0-.03,0c-.14,.09-.3,.16-.46,.21-.05,.22-.11,.43-.19,.64l-.82,2.36c-.06,.21-.25,.35-.47,.35h0v.11c.18,0,.35-.02,.53-.02,.2,0,.4,.01,.6,.02v-.11h-.04c-.17,0-.4-.02-.41-.2,.02-.14,.06-.28,.11-.41h0l.17-.55h1.2l.21,.61c.05,.12,.08,.25,.1,.38,0,.16-.22,.17-.34,.17h-.03v.11h0Zm-1.05-1.52h0l.49-1.5h.03v.02h0v-.02h.02l.49,1.5h-1.02Zm.06-.04h.9l-.45-1.38-.45,1.38h0Zm.44-1.43h0Z"/><path id="by" class="cd" d="M74.64,21.91c0,.21,.14,.27,.31,.29,.23,.02,.45,.01,.68-.01,.19-.02,.37-.12,.49-.28,.07-.11,.13-.24,.16-.37h.15c-.06,.29-.13,.58-.19,.88-.45,0-.91-.02-1.36-.02s-.91,.02-1.36,.02v-.15h.07c.19,0,.39-.02,.39-.35v-2.65c0-.27-.2-.29-.39-.29h-.07v-.15c.27,0,.54,.02,.81,.02s.52-.02,.78-.02v.15h-.13c-.2,0-.35,0-.35,.28v2.66h0Z"/><path id="c`" class="cd" d="M76.24,22.44c-.45,0-.91-.02-1.36-.02s-.91,.02-1.36,.02h-.02v-.2h.09c.19,0,.36-.02,.36-.32v-2.65c0-.25-.18-.27-.36-.27h-.09v-.2h.02c.27,0,.54,.02,.81,.02s.52-.02,.78-.02h.02v.2h-.15c-.2,0-.32,0-.33,.26v2.66c0,.19,.13,.24,.29,.27,.09,0,.19,.01,.29,.01,.13,0,.26,0,.39-.02,.19-.02,.36-.12,.48-.27,.07-.11,.13-.23,.16-.36v-.02h.19v.03c-.06,.3-.13,.58-.19,.88v.02h-.02Zm-.02-.05h0c.06-.28,.13-.55,.18-.83h-.11c-.03,.13-.09,.25-.16,.36-.13,.16-.31,.26-.51,.29-.13,.01-.26,.02-.4,.02-.1,0-.2,0-.29-.01-.17-.02-.33-.09-.33-.31v-2.66c0-.29,.18-.3,.37-.3h.11v-.11c-.25,0-.5,.02-.76,.02s-.53-.02-.79-.02v.11h.05c.18,0,.41,.03,.41,.32v2.65c0,.33-.22,.37-.41,.37h-.05v.11c.44,0,.89-.02,1.34-.02s.9,.02,1.34,.02h0Z"/><path id="ca" class="cd" d="M76.37,18.67c.3,0,.54,.24,.54,.54,0,.3-.24,.54-.54,.54-.3,0-.54-.24-.54-.54,0-.29,.23-.54,.52-.54,0,0,.01,0,.02,0Zm0,.98h0c.24,0,.45-.19,.45-.43,0-.24-.19-.45-.43-.45-.24,0-.45,.19-.45,.43h0c0,.25,.19,.44,.43,.45h0Zm-.27-.15h0v-.03c.07,0,.08,0,.08-.05v-.4c0-.06,0-.08-.08-.07v-.03h.28c.1,0,.18,.05,.18,.14,0,.08-.05,.14-.13,.16l.09,.12s.07,.09,.12,.13v.02h-.11c-.05,0-.09-.11-.19-.25h-.06v.18s.01,.03,.08,.04v.03h-.26Zm.18-.29h.06c.07,0,.1-.05,.1-.14,0-.05-.03-.11-.08-.12,0,0-.02,0-.02,0h-.06v.26Z"/></svg>