<?xml version="1.0" encoding="utf-8"?>
<!-- Generator: Adobe Illustrator 26.1.0, SVG Export Plug-In . SVG Version: 6.00 Build 0)  -->
<svg version="1.1" id="Layer_1" xmlns="http://www.w3.org/2000/svg" xmlns:xlink="http://www.w3.org/1999/xlink" x="0px" y="0px"
	 viewBox="0 0 29 26" style="enable-background:new 0 0 29 26;" xml:space="preserve">
<g id="Artboard_44">
	<path id="Icon_awesome-twitter" d="M25.4,8.9c0,0.2,0,0.4,0,0.7c0.1,8-6.4,14.5-14.4,14.6c-0.1,0-0.1,0-0.2,0
		c-2.8,0-5.5-0.8-7.9-2.3c0.4,0,0.8,0.1,1.2,0.1c2.3,0,4.5-0.8,6.4-2.2c-2.2,0-4.1-1.5-4.8-3.5c0.3,0.1,0.6,0.1,1,0.1
		c0.5,0,0.9-0.1,1.3-0.2c-2.4-0.5-4.1-2.6-4.1-5V11c0.7,0.4,1.5,0.6,2.3,0.6c-2.3-1.5-2.9-4.5-1.6-6.8c2.6,3.2,6.4,5.1,10.6,5.4
		c-0.1-0.4-0.1-0.8-0.1-1.2c0-2.8,2.3-5.1,5.1-5.1c1.4,0,2.8,0.6,3.7,1.6c1.1-0.2,2.2-0.6,3.2-1.2c-0.4,1.2-1.2,2.2-2.3,2.8
		c1-0.1,2-0.4,2.9-0.8C27.3,7.3,26.4,8.2,25.4,8.9L25.4,8.9z"/>
</g>
</svg>
