<?xml version="1.0" encoding="UTF-8"?><svg id="a" xmlns="http://www.w3.org/2000/svg" viewBox="0 0 38.13 24.13"><defs><style>.b{fill:#fff;}.c{fill:#8e3b3d;}</style></defs><path class="c" d="M11.74,23.16h-.53s-.08-.01-.13-.01c-.52-.01-1.04-.07-1.55-.16-1.21-.22-2.36-.62-3.43-1.22-1.73-.97-3.11-2.31-4.13-4.01-.85-1.42-1.34-2.95-1.49-4.6-.08-.91-.06-1.81,.08-2.71,.16-1.06,.47-2.08,.93-3.05,1.09-2.25,2.74-3.96,4.96-5.1,1.45-.75,3-1.14,4.64-1.2,1.07-.04,2.13,.08,3.17,.36,1.38,.37,2.64,.99,3.78,1.85,.12,.09,.23,.18,.35,.27-1.48,1.45-2.51,3.15-3.12,5.12,.28,0,.55,0,.82,0,.08,0,.11-.03,.14-.1,.56-1.66,1.47-3.11,2.72-4.34,.04-.04,.08-.08,.12-.11,.01,.01,.02,.02,.03,.02,.82,.79,1.51,1.68,2.06,2.68,.31,.57,.57,1.16,.78,1.78,0,.03,.04,.07,.06,.07,.29,0,.58,0,.88,0-.61-1.99-1.67-3.69-3.15-5.13,.02-.02,.04-.04,.06-.05,1.69-1.34,3.6-2.14,5.75-2.36,1-.1,1.99-.07,2.98,.09,1.48,.25,2.87,.77,4.12,1.6,2.96,1.97,4.64,4.72,5.03,8.25,.1,.9,.06,1.8-.08,2.7-.17,1.14-.52,2.23-1.04,3.27-.93,1.84-2.27,3.32-4.02,4.41-1.57,.99-3.28,1.53-5.14,1.65-.16,.01-.31,.02-.47,.03h-.51s-.08-.01-.12-.01c-.75-.02-1.5-.13-2.23-.3-1.23-.3-2.37-.79-3.42-1.49-.31-.21-.61-.44-.93-.66,.75-.72,1.38-1.51,1.92-2.37,.53-.87,.95-1.78,1.24-2.76-.03,0-.05,0-.08,0-.27,0-.53,0-.8,0-.02,0-.05,.04-.06,.06-.51,1.51-1.31,2.84-2.39,4.01-.15,.17-.32,.32-.49,.48-.01,0-.02-.02-.04-.03-.3-.33-.62-.64-.9-.98-.85-1.03-1.49-2.19-1.91-3.47-.02-.05-.04-.08-.1-.07-.26,0-.51,0-.77,0-.02,0-.04,0-.07,0,.6,1.97,1.64,3.67,3.11,5.11-.02,.02-.04,.04-.06,.05-1.81,1.43-3.85,2.25-6.16,2.41-.14,0-.29,.02-.43,.03ZM3.17,11.23h.02l.29,3.48c.33,0,.64,0,.96,0,.07,0,.11-.02,.14-.09,.48-1.08,.97-2.16,1.45-3.25,.01-.03,.03-.05,.04-.08h.01l-.64,3.41h1.15l.92-4.92h-.1c-.55,0-1.09,0-1.64,0-.07,0-.1,.02-.13,.09-.42,.93-.84,1.85-1.26,2.78-.01,.03-.03,.06-.04,.09h-.02l-.21-2.95h-1.78l-.95,4.91h1.11l.67-3.48Zm32.6,3.48l.97-5.18h-1.17l-.3,1.55h-.03c-.06-.05-.12-.12-.18-.19-.17-.19-.38-.28-.63-.28-.12,0-.24,0-.37,0-.5,0-.92,.18-1.22,.59-.38,.51-.6,1.09-.64,1.73-.03,.53,.12,1.01,.48,1.4,.3,.32,.66,.45,1.09,.33,.23-.06,.44-.15,.65-.28,.01,.02,.02,.04,.03,.05,.04,.09,.06,.22,.13,.26,.07,.05,.2,.01,.3,.01,.29,0,.58,0,.88,0Zm-7.27-2.66s-.03,.01-.05,.01c-.05,0-.1,0-.14,0-.36-.01-.72,0-1.08,.08-.66,.15-1.13,.53-1.3,1.21-.1,.41-.04,.78,.28,1.07,.26,.23,.56,.33,.91,.31,.31-.02,.61-.04,.87-.24,.04,.06,.07,.11,.1,.16,.03,.06,.07,.07,.13,.07,.22,0,.43,0,.65,0h.3s.01-.05,.02-.08c.13-.64,.25-1.28,.38-1.92,.06-.32,.13-.64,.1-.98-.04-.36-.18-.67-.49-.87-.26-.17-.55-.24-.85-.26-.56-.03-1.12,.01-1.67,.12-.05,0-.06,.03-.07,.08-.03,.15-.06,.3-.09,.45l-.07,.36c.06,0,.1,0,.14-.01,.34-.04,.67-.08,1.01-.1,.23-.01,.45,0,.68,.03,.16,.02,.25,.13,.26,.28,0,.08,0,.16-.01,.24Zm-18.12,2.66s.01-.05,.02-.07c.1-.49,.2-.97,.29-1.46,.07-.39,.16-.78,.2-1.17,.04-.41-.06-.79-.39-1.07-.27-.23-.6-.31-.95-.33-.56-.03-1.12,.01-1.68,.12-.03,0-.06,.04-.07,.07-.03,.15-.06,.3-.09,.45-.02,.12-.05,.24-.07,.37,.05,0,.09,0,.13-.01,.33-.04,.66-.08,.99-.1,.23-.01,.47,0,.7,.03,.17,.02,.26,.14,.26,.32,0,.07-.01,.14-.02,.22-.07,0-.13,0-.19,0-.36-.01-.72,0-1.07,.08-.67,.16-1.13,.53-1.31,1.21-.2,.79,.34,1.29,.93,1.36,.4,.04,.79,0,1.14-.22,.04,.06,.07,.12,.11,.18,.02,.02,.05,.04,.07,.04,.33,0,.65,0,.99,0Zm16.15-4.51c-.45-.56-1.13-.71-1.8-.64-.67,.07-1.23,.41-1.65,.93-.61,.76-.83,1.64-.67,2.59,.14,.82,.64,1.35,1.45,1.57,.4,.11,.81,.06,1.21,0,.21-.03,.42-.1,.62-.2l-.33-.99s-.07,.02-.11,.03c-.22,.06-.44,.09-.66,.08-.48-.02-.85-.31-.97-.78-.07-.26-.06-.52-.01-.78,.17-.96,1.16-1.62,2.15-1.11,.02,.01,.06,0,.08,0,.23-.23,.46-.45,.69-.69Zm-6.88,2.69c.08-.39,.13-.78,.07-1.17-.09-.51-.37-.87-.88-1.01-.22-.06-.46-.09-.7-.1-.49-.01-.93,.12-1.31,.44-.53,.45-.94,1.53-.71,2.36,.19,.69,.62,1.13,1.33,1.26,.38,.07,.76,.06,1.14,.01,.22-.02,.44-.08,.67-.13,.05-.01,.08-.04,.09-.1,.03-.19,.08-.38,.11-.57,.01-.06,.03-.13,.04-.19-.02,0-.03,0-.04,0-.52,.08-1.05,.11-1.58,.08-.51-.03-.78-.4-.64-.88h2.41Zm-8.88,1.68s.07,.02,.09,.03c.56,.14,1.13,.15,1.7,.09,.19-.02,.39-.07,.57-.15,.5-.22,.72-.64,.74-1.17,.02-.36-.11-.65-.43-.83-.25-.14-.5-.28-.75-.42-.05-.03-.1-.06-.14-.1-.09-.09-.14-.2-.1-.32,.04-.12,.15-.17,.27-.18,.35-.03,.7-.02,1.06,.06l.25-.82s-.09-.03-.13-.04c-.35-.12-.72-.13-1.09-.11-.36,.02-.71,.07-1.02,.25-.25,.14-.45,.34-.52,.62-.04,.16-.07,.33-.07,.49,0,.39,.14,.67,.53,.84,.28,.12,.55,.28,.82,.43,.13,.07,.18,.23,.14,.38-.04,.13-.15,.21-.3,.22-.06,0-.11,0-.17,0-.31,0-.62-.01-.93-.03-.12,0-.24-.04-.37-.07l-.15,.83Zm4.95-3.9l.23-1.08c-.34,0-.66,0-.99,0-.15,0-.12-.03-.15,.12-.2,.99-.4,1.98-.59,2.97-.07,.34-.14,.69-.18,1.04-.06,.51,.23,.9,.73,.99,.27,.05,.54,0,.8-.08,.13-.04,.22-.1,.22-.27,0-.21,.03-.43,.05-.65-.06,0-.11,.01-.17,.01-.37,.03-.51-.13-.45-.49,.06-.32,.12-.64,.18-.96,.04-.24,.09-.47,.14-.71,.14,0,.28,0,.42,0,.14,0,.15,0,.18-.14,.06-.24,.11-.49,.17-.74h-.6Zm15,4.03s.01-.04,.02-.06c.09-.5,.19-1.01,.28-1.51,.06-.35,.15-.68,.33-.98,.17-.3,.42-.47,.78-.45,.05,0,.07-.02,.09-.07,.06-.21,.12-.42,.18-.63,.03-.12,.07-.24,.1-.36-.35-.03-.69,.09-1.06,.38-.02-.07-.04-.13-.05-.2q-.05-.19-.25-.19h-.76l-.76,4.08h1.12Zm-10.29-4.03l-.75,4.03h1.11c.1-.53,.2-1.05,.29-1.58,.06-.33,.15-.65,.32-.94,.18-.3,.43-.48,.79-.46,.05,0,.07-.02,.09-.07,.06-.24,.13-.48,.19-.71l.07-.28c-.4,0-.76,.09-1.05,.39-.03-.12-.05-.23-.09-.33,0-.02-.04-.05-.06-.05-.3,0-.6,0-.91,0Z"/><path class="b" d="M3.17,11.23l-.67,3.48H1.39l.95-4.91h1.78l.21,2.94h.02s.03-.05,.04-.08c.42-.93,.84-1.85,1.26-2.78,.03-.06,.06-.09,.13-.09,.55,0,1.09,0,1.64,0h.1l-.92,4.92h-1.15l.64-3.4h-.01s-.03,.05-.04,.08c-.48,1.08-.97,2.16-1.45,3.25-.03,.07-.06,.09-.14,.09-.31,0-.63,0-.96,0l-.29-3.48h-.02Z"/><path class="b" d="M35.77,14.71c-.3,0-.59,0-.88,0-.1,0-.23,.03-.3-.01-.07-.04-.09-.17-.13-.26,0-.01-.02-.03-.03-.05-.2,.13-.42,.22-.65,.28-.44,.12-.8,0-1.09-.33-.36-.4-.51-.88-.48-1.4,.03-.64,.26-1.22,.64-1.73,.3-.4,.72-.58,1.22-.59,.12,0,.24,0,.37,0,.25,0,.46,.1,.63,.28,.06,.07,.12,.13,.18,.2h.03l.3-1.56h1.17l-.97,5.18Zm-.82-2.38c-.03-.15-.05-.31-.1-.45-.06-.18-.2-.28-.38-.3-.15-.02-.28,.02-.41,.09-.42,.23-.72,.85-.66,1.32,.04,.3,.24,.54,.51,.59,.24,.04,.45-.05,.61-.23,.25-.29,.41-.62,.42-1.01Z"/><path class="b" d="M28.5,12.05c0-.08,.02-.16,.01-.24,0-.16-.09-.26-.26-.28-.22-.03-.45-.04-.68-.03-.34,.02-.67,.07-1.01,.1-.04,0-.08,0-.14,.01l.07-.36c.03-.15,.06-.3,.09-.45,0-.05,.03-.07,.07-.08,.55-.1,1.11-.15,1.67-.12,.3,.02,.6,.09,.85,.26,.31,.21,.46,.51,.49,.87,.03,.33-.04,.65-.1,.98-.13,.64-.25,1.28-.38,1.92,0,.02-.01,.04-.02,.08h-.3c-.22,0-.43,0-.65,0-.06,0-.1-.01-.13-.07-.03-.05-.06-.1-.1-.16-.26,.2-.57,.22-.87,.24-.34,.02-.65-.07-.91-.31-.32-.29-.38-.66-.28-1.07,.17-.68,.64-1.05,1.3-1.21,.35-.08,.71-.09,1.08-.08,.05,0,.1,0,.14,0,.01,0,.02,0,.05-.01Zm-.19,.84c-.24-.05-.47-.09-.71-.02-.25,.08-.45,.22-.54,.48-.08,.21,.01,.39,.22,.45,.28,.09,.53,.01,.75-.16,.1-.08,.17-.18,.19-.31,.03-.14,.05-.28,.08-.44Z"/><path class="b" d="M10.39,14.71c-.33,0-.66,0-.99,0-.02,0-.06-.02-.07-.04-.04-.06-.08-.12-.11-.18-.35,.23-.75,.26-1.14,.22-.59-.06-1.13-.57-.93-1.36,.18-.68,.64-1.06,1.31-1.21,.35-.08,.71-.09,1.07-.08,.06,0,.12,0,.19,0,0-.08,.02-.15,.02-.22,0-.18-.08-.3-.26-.32-.23-.03-.47-.04-.7-.03-.33,.02-.66,.07-.99,.1-.04,0-.08,0-.13,.01,.02-.13,.05-.25,.07-.37,.03-.15,.06-.3,.09-.45,0-.03,.04-.06,.07-.07,.55-.11,1.11-.15,1.68-.12,.34,.02,.68,.1,.95,.33,.33,.28,.43,.66,.39,1.07-.04,.39-.12,.78-.2,1.17-.09,.49-.19,.97-.29,1.46,0,.02-.01,.04-.02,.07Zm-.86-1.82c-.22-.05-.44-.08-.66-.03-.27,.07-.49,.22-.59,.49-.07,.2,.01,.39,.22,.44,.11,.03,.24,.04,.35,.02,.27-.05,.5-.18,.59-.47,.04-.15,.06-.3,.09-.46Z"/><path class="b" d="M26.53,10.2c-.23,.23-.46,.46-.69,.69-.02,.01-.06,.02-.08,0-.99-.51-1.98,.16-2.15,1.11-.05,.26-.06,.52,.01,.78,.13,.46,.49,.75,.97,.78,.23,.01,.45-.02,.66-.08,.03,0,.06-.02,.11-.03l.33,.99c-.2,.1-.4,.16-.62,.2-.4,.07-.81,.11-1.21,0-.81-.22-1.32-.75-1.45-1.57-.16-.95,.06-1.83,.67-2.59,.42-.52,.98-.85,1.65-.93,.67-.08,1.35,.08,1.8,.64Z"/><path class="b" d="M19.66,12.89h-2.41c-.13,.48,.14,.85,.64,.88,.53,.03,1.05,0,1.58-.08,.01,0,.02,0,.04,0-.01,.07-.03,.13-.04,.19-.04,.19-.08,.38-.11,.57-.01,.06-.04,.09-.09,.1-.22,.04-.44,.1-.67,.13-.38,.04-.76,.06-1.14-.01-.71-.13-1.14-.56-1.33-1.26-.23-.83,.18-1.91,.71-2.36,.38-.32,.82-.45,1.31-.44,.23,0,.47,.03,.7,.1,.51,.14,.79,.49,.88,1.01,.06,.39,.01,.78-.07,1.17Zm-.95-.74c0-.13,0-.25-.02-.37-.03-.2-.17-.33-.37-.36-.1-.01-.21-.01-.31,0-.35,.05-.67,.39-.68,.72h1.38Z"/><path class="b" d="M10.78,14.56l.15-.83c.13,.03,.25,.06,.37,.07,.31,.02,.62,.02,.93,.03,.06,0,.11,0,.17,0,.15,0,.26-.09,.3-.22,.04-.15-.01-.3-.14-.38-.27-.15-.53-.31-.82-.43-.38-.16-.54-.45-.53-.84,0-.17,.03-.33,.07-.49,.08-.28,.27-.48,.52-.62,.32-.17,.67-.23,1.02-.25,.37-.02,.73,0,1.09,.11,.04,.01,.08,.03,.13,.04l-.25,.82c-.35-.07-.71-.09-1.06-.06-.12,.01-.23,.06-.27,.18-.04,.13,0,.24,.1,.32,.04,.04,.09,.07,.14,.1,.25,.14,.5,.28,.75,.42,.32,.18,.45,.47,.43,.83-.02,.53-.24,.95-.74,1.17-.18,.08-.38,.13-.57,.15-.57,.05-1.14,.04-1.7-.09-.03,0-.05-.01-.09-.03Z"/><path class="b" d="M15.73,10.67h.6c-.06,.25-.11,.5-.17,.74-.03,.14-.03,.14-.18,.14-.14,0-.28,0-.42,0-.05,.24-.09,.48-.14,.71-.06,.32-.12,.64-.18,.96-.07,.36,.08,.52,.45,.49,.05,0,.11,0,.17-.01-.02,.22-.05,.44-.05,.65,0,.17-.09,.23-.22,.27-.26,.09-.53,.13-.8,.08-.5-.09-.79-.48-.73-.99,.04-.35,.12-.69,.18-1.04,.19-.99,.39-1.98,.59-2.97,.03-.15,0-.12,.15-.12,.32,0,.65,0,.99,0l-.23,1.08Z"/><path class="b" d="M30.73,14.7h-1.12l.76-4.08h.76q.2,0,.25,.19c.02,.06,.03,.13,.05,.2,.38-.3,.71-.42,1.06-.38-.03,.12-.07,.24-.1,.36-.06,.21-.12,.42-.18,.63-.01,.05-.03,.07-.09,.07-.36-.02-.6,.16-.78,.45-.18,.31-.27,.64-.33,.98-.09,.51-.18,1.01-.28,1.51,0,.02,0,.04-.02,.06Z"/><path class="b" d="M20.44,10.67c.31,0,.61,0,.91,0,.02,0,.05,.03,.06,.05,.03,.11,.05,.21,.09,.33,.29-.3,.65-.39,1.05-.39l-.07,.28c-.06,.24-.13,.48-.19,.71-.01,.05-.03,.07-.09,.07-.36-.02-.62,.15-.79,.46-.17,.29-.26,.61-.32,.94-.09,.52-.19,1.05-.29,1.58h-1.11l.75-4.03Z"/><path class="c" d="M34.95,12.33c-.01,.4-.17,.73-.42,1.01-.16,.18-.36,.27-.61,.23-.27-.04-.47-.29-.51-.59-.06-.48,.24-1.09,.66-1.32,.13-.07,.26-.11,.41-.09,.19,.02,.33,.12,.38,.3,.05,.15,.06,.3,.1,.45Z"/><path class="c" d="M28.31,12.89c-.03,.15-.05,.29-.08,.44-.03,.13-.09,.23-.19,.31-.22,.18-.47,.25-.75,.16-.21-.07-.3-.25-.22-.45,.09-.25,.29-.4,.54-.48,.23-.07,.47-.03,.71,.02Z"/><path class="c" d="M9.52,12.89c-.03,.16-.05,.32-.09,.46-.09,.29-.31,.42-.59,.47-.11,.02-.24,0-.35-.02-.21-.06-.29-.24-.22-.44,.1-.27,.31-.42,.59-.49,.22-.05,.44-.02,.66,.03Z"/><path class="c" d="M18.71,12.14h-1.38c.01-.33,.33-.67,.68-.72,.1-.01,.21-.02,.31,0,.2,.03,.34,.16,.37,.36,.02,.12,.01,.24,.02,.37Z"/></svg>