<?xml version="1.0" encoding="UTF-8"?><svg id="a" xmlns="http://www.w3.org/2000/svg" viewBox="0 0 105.06 26.68"><defs><style>.b{fill:#fff;}.b,.c,.d{fill-rule:evenodd;}.c{fill:#8e3b3d;}.d{fill:#aa5153;}</style></defs><polygon class="c" points="20 22.92 23.44 22.92 26.12 12.89 22.69 12.89 20 22.92"/><polygon class="c" points="37.62 22.92 41.04 22.92 43.74 12.89 40.32 12.89 37.62 22.92"/><polygon class="c" points="55.24 22.92 58.67 22.92 61.36 12.89 57.94 12.89 55.24 22.92"/><path class="c" d="M34.44,16.33h3.44c.46-2.25-1-3.42-4.37-3.42-3.9,0-6.54,1.9-7.42,5.22-.8,3,.78,4.83,4.46,4.83s5.9-1.15,6.83-3.73h-3.44c-.47,1.14-1.39,1.73-2.59,1.73-1.66,0-2.3-1.05-1.8-2.97,.53-1.98,1.78-3.08,3.46-3.08,1.02,0,1.51,.47,1.44,1.42"/><path class="c" d="M52.06,16.33h3.44c.46-2.25-1-3.42-4.37-3.42-3.9,0-6.54,1.9-7.42,5.22-.8,3,.78,4.83,4.46,4.83s5.9-1.15,6.83-3.73h-3.44c-.47,1.14-1.39,1.73-2.59,1.73-1.66,0-2.3-1.05-1.8-2.97,.53-1.98,1.78-3.08,3.46-3.08,1.02,0,1.51,.47,1.44,1.42"/><path class="d" d="M6.75,7.32c4.59-4.56,10.15-5.73,12.37-2.63,2.22,3.12,.27,9.37-4.32,13.91-4.59,4.56-10.15,5.73-12.37,2.63-2.2-3.1-.27-9.35,4.32-13.91"/><path class="c" d="M9.8,4.89c-.49,.37-1.02,.81-1.52,1.3-4.03,3.96-5.69,9.42-3.71,12.15,2.05,2.73,7,1.73,11.08-2.29,2.2-2.13,3.69-4.64,4.3-6.96,.19-1.71-.07-3.22-.83-4.37-1.76-2.42-5.54-2.24-9.32,.17"/><path class="b" d="M12.07,20.87c-2.15,1.61-4.37,2.42-6.54,2.08,.91,.05,1.64-.97,2.25-2.32,.61-1.39,.98-2.68,1.27-3.88,.42-1.91,.46-3.27,.24-3.56-.37-.49-1.2-.36-2.15,.19-.46,.25-1.05,.08-.34-.78,.73-.86,3.58-2.97,4.61-3.29,1.14-.32,2.42,.12,1.98,1.36-.3,.88-4.27,11.28-1.32,10.2M15.31,4.76c.54,.54,.2,1.71-.69,2.63-.91,.91-2.12,1.24-2.64,.71-.56-.53-.22-1.71,.69-2.64,.93-.93,2.13-1.22,2.64-.69"/><path class="c" d="M66.51,21.34l.78-2.93h2.25c1.73,0,2.49,.3,2.19,1.49-.29,1.08-1.14,1.44-2.69,1.44h-2.52m1.85-6.9h2.13c1.61,0,2.34,.19,2.08,1.2-.27,1-1.14,1.25-2.8,1.25h-2.08l.66-2.46Zm-4.44,8.49h5.15c1.46,0,2.56-.12,3.59-.83,.69-.47,1.22-1.2,1.42-2,.37-1.37-.25-2.3-1.83-2.52,1.49-.27,2.42-1.05,2.73-2.24,.25-.91,.05-1.58-.61-2.02-.54-.36-1.44-.42-2.64-.42h-5.12l-2.69,10.03Z"/><path class="c" d="M80.56,19.72l-.03,.12c-.34,1.3-1.39,2.08-2.68,2.08-.93,0-1.32-.36-1.15-1.03,.25-.91,1.05-1.17,2.54-1.17h1.32m-.81,3.22h2.07c.05-.47,.17-.98,.32-1.56l.75-2.8c.49-1.85-.42-2.8-2.74-2.8s-3.71,.78-4.15,2.08h1.98c.25-.66,.83-.97,1.78-.97,1.07,0,1.44,.47,1.17,1.49l-.03,.12h-1.08c-3.07,0-4.73,.56-5.2,2.32-.37,1.37,.49,2.25,2.32,2.25,1.19,0,2.22-.39,3.05-1.14l-.22,.98Z"/><path class="c" d="M83.59,22.94h2.08l.97-3.58c.36-1.3,1.54-2.2,2.78-2.2s1.64,.71,1.25,2.13l-.98,3.66h2.03l1.15-4.29c.49-1.81-.44-2.86-2.46-2.86-1.3,0-2.37,.44-3.27,1.39l.25-1.24h-2.05c-.2,1.1-.36,1.78-.42,2.05l-1.34,4.93"/><polygon class="c" points="93.55 22.94 95.57 22.94 96.59 19.16 99.31 22.94 102.09 22.94 99.01 18.94 103.18 15.94 100.57 15.94 96.69 18.77 98.26 12.91 96.25 12.91 93.55 22.94"/></svg>